<svg width="1155" height="872" viewBox="0 0 1155 872" fill="none" xmlns="http://www.w3.org/2000/svg">
<g opacity="0.7">
<mask id="mask0_635_292" style="mask-type:alpha" maskUnits="userSpaceOnUse" x="0" y="-288" width="1178" height="1160">
<rect x="376.459" y="-287.588" width="891.562" height="853.267" transform="rotate(26.1152 376.459 -287.588)" fill="url(#paint0_linear_635_292)"/>
</mask>
<g mask="url(#mask0_635_292)">
<path d="M799.188 380.983C718.803 544.96 533.205 618.874 384.678 546.063C369.101 538.427 354.495 529.452 340.988 519.361C479.457 557.511 635.661 482.909 707.631 336.099C779.6 189.289 742.867 20.1835 627.931 -65.9705C644.181 -61.4745 660.221 -55.4251 675.798 -47.7887C824.325 25.0225 879.574 217.006 799.188 380.983Z" fill="url(#paint1_linear_635_292)"/>
<g filter="url(#filter0_f_635_292)">
<path d="M789.015 375.996C708.63 539.972 533.205 618.874 384.678 546.063C369.101 538.427 354.495 529.452 340.988 519.361C479.457 557.511 645.834 487.896 717.804 341.086C789.773 194.276 742.867 20.1834 627.931 -65.9705C644.181 -61.4745 660.221 -55.4251 675.798 -47.7887C824.325 25.0225 869.4 212.019 789.015 375.996Z" fill="url(#paint2_linear_635_292)"/>
</g>
<g filter="url(#filter1_f_635_292)">
<path d="M783.929 373.502C703.543 537.479 520.538 618.974 372.012 546.163C356.434 538.526 341.828 529.552 328.321 519.461C466.79 557.611 650.921 490.39 722.89 343.58C794.86 196.77 729.203 14.2738 614.267 -71.8802C630.517 -67.3842 646.557 -61.3348 662.134 -53.6983C810.661 19.1128 864.314 209.525 783.929 373.502Z" fill="url(#paint3_linear_635_292)"/>
</g>
<g filter="url(#filter2_f_635_292)">
<path d="M783.929 373.502C703.543 537.479 520.538 618.974 372.012 546.163C356.434 538.526 341.828 529.552 328.321 519.461C466.79 557.611 650.921 490.39 722.89 343.58C794.86 196.77 729.203 14.2738 614.267 -71.8802C630.517 -67.3842 646.557 -61.3348 662.134 -53.6983C810.661 19.1128 864.314 209.525 783.929 373.502Z" fill="url(#paint4_linear_635_292)"/>
</g>
<g filter="url(#filter3_f_635_292)">
<path d="M783.929 373.502C703.543 537.479 520.538 618.974 372.012 546.163C356.434 538.526 341.828 529.552 328.321 519.461C466.79 557.611 650.921 490.39 722.89 343.58C794.86 196.77 729.203 14.2738 614.267 -71.8802C630.517 -67.3842 646.557 -61.3348 662.134 -53.6983C810.661 19.1128 864.314 209.525 783.929 373.502Z" fill="url(#paint5_linear_635_292)"/>
</g>
<g filter="url(#filter4_f_635_292)">
<path d="M750.81 370.279C670.424 534.255 520.538 618.974 372.011 546.163C356.434 538.526 341.828 529.552 328.321 519.461C466.79 557.611 665.419 502.64 739.421 351.684C832.143 162.542 729.203 14.2738 614.267 -71.8802C630.517 -67.3842 646.557 -61.3348 662.134 -53.6983C810.661 19.1128 831.195 206.302 750.81 370.279Z" fill="url(#paint6_linear_635_292)"/>
</g>
<g filter="url(#filter5_f_635_292)">
<path d="M750.81 370.279C670.425 534.256 527.282 651.064 378.756 578.253C363.178 570.617 329.411 509.033 315.904 498.942C454.373 537.092 665.419 502.64 739.421 351.684C832.143 162.542 706.22 23.353 591.284 -62.8009C584.022 -47.9864 638.529 -95.632 654.106 -87.9956C802.633 -15.1844 831.195 206.302 750.81 370.279Z" fill="url(#paint7_linear_635_292)"/>
</g>
<g filter="url(#filter6_f_635_292)">
<path d="M750.81 370.279C670.425 534.256 527.282 651.064 378.756 578.253C363.178 570.617 329.411 509.033 315.904 498.942C454.373 537.092 665.419 502.64 739.421 351.684C832.143 162.542 706.22 23.353 591.284 -62.8009C584.022 -47.9864 638.529 -95.632 654.106 -87.9956C802.633 -15.1844 831.195 206.302 750.81 370.279Z" fill="url(#paint8_linear_635_292)"/>
</g>
<g filter="url(#filter7_f_635_292)">
<path d="M750.81 370.279C670.425 534.256 527.282 651.064 378.756 578.253C363.178 570.617 329.411 509.033 315.904 498.942C454.373 537.092 665.419 502.64 739.421 351.684C832.143 162.542 706.22 23.353 591.284 -62.8009C584.022 -47.9864 638.529 -95.632 654.106 -87.9956C802.633 -15.1844 831.195 206.302 750.81 370.279Z" fill="url(#paint9_linear_635_292)"/>
</g>
</g>
<g filter="url(#filter8_f_635_292)">
<mask id="mask1_635_292" style="mask-type:alpha" maskUnits="userSpaceOnUse" x="402" y="335" width="413" height="303">
<path opacity="0.8" d="M402.801 505.875L491.145 637.25L670.486 582.122L814.691 335.558L675.885 352.948L639.63 349.109L422.274 472.579L402.801 505.875Z" fill="url(#paint10_linear_635_292)"/>
</mask>
<g mask="url(#mask1_635_292)">
<g opacity="0.8">
<path d="M792.646 321.183C787.679 355.3 812.866 332.832 793.582 365.804C784.695 380.998 670.186 468.697 659.293 481.484C601.844 529.275 532.012 543.908 474.612 519.446C462.944 514.502 452.381 507.912 442.163 500.408C493.883 538.473 574.219 498.015 624.442 449.524C695.571 380.939 732.924 274.5 692.781 176.096C749.72 218.212 756.452 350.552 760.98 329.107L792.646 321.183Z" fill="#F9CD56"/>
<g filter="url(#filter9_f_635_292)">
<path d="M778.283 313.991C773.316 348.108 798.502 325.64 779.218 358.612C770.332 373.806 655.823 461.505 644.93 474.292C587.48 522.083 517.649 536.716 460.249 512.254C448.581 507.31 438.018 500.721 427.799 493.216C479.52 531.281 589.97 489.717 640.194 441.226C711.322 372.641 768.174 289.683 728.031 191.279C784.97 233.395 742.089 343.36 746.617 321.915L778.283 313.991Z" fill="#F9CD56"/>
</g>
<g filter="url(#filter10_f_635_292)">
<path d="M778.283 313.991C773.316 348.108 798.502 325.64 779.218 358.612C770.332 373.806 655.823 461.505 644.93 474.292C587.48 522.083 517.649 536.716 460.249 512.254C448.581 507.31 438.018 500.721 427.799 493.216C479.52 531.281 589.97 489.717 640.194 441.226C711.322 372.641 768.174 289.683 728.031 191.279C784.97 233.395 742.089 343.36 746.617 321.915L778.283 313.991Z" fill="#F9CD56"/>
</g>
<g filter="url(#filter11_f_635_292)">
<path d="M778.283 313.991C773.316 348.108 798.502 325.64 779.218 358.612C770.332 373.806 655.823 461.505 644.93 474.292C587.48 522.083 517.649 536.716 460.249 512.254C448.581 507.31 438.018 500.721 427.799 493.216C479.52 531.281 589.97 489.717 640.194 441.226C711.322 372.641 768.174 289.683 728.031 191.279C784.97 233.395 742.089 343.36 746.617 321.915L778.283 313.991Z" fill="#F9CD56"/>
</g>
<g filter="url(#filter12_f_635_292)">
<path d="M778.283 313.991C773.316 348.108 798.502 325.64 779.218 358.612C770.332 373.806 655.823 461.505 644.93 474.292C587.48 522.083 517.649 536.716 460.249 512.254C448.581 507.31 438.018 500.721 427.799 493.216C479.52 531.281 587.924 505.423 638.147 456.933C709.276 388.347 768.174 289.683 728.031 191.279C784.97 233.395 742.089 343.36 746.617 321.915L778.283 313.991Z" fill="#F9CD56"/>
</g>
<g filter="url(#filter13_f_635_292)">
<path d="M778.282 313.991C773.315 348.108 798.501 325.64 779.217 358.612C770.331 373.806 655.822 461.505 644.929 474.292C587.479 522.083 517.648 536.716 460.248 512.253C448.58 507.31 433.114 501.582 422.896 494.078C474.617 532.143 585.717 508.36 635.94 459.869C707.069 391.284 768.173 289.683 728.03 191.279C784.969 233.395 742.087 343.36 746.615 321.915L778.282 313.991Z" fill="#F9CD56"/>
</g>
<g filter="url(#filter14_f_635_292)">
<path d="M792.646 321.183C787.679 355.3 812.866 332.832 793.582 365.804C784.695 380.998 667.921 462.542 657.028 475.329C599.579 523.119 532.012 543.908 474.612 519.446C462.944 514.502 452.381 507.912 442.163 500.408C493.883 538.473 577.86 500.145 628.083 451.654C699.212 383.069 756.229 288.13 716.086 189.726C773.025 231.843 756.452 350.552 760.98 329.107L792.646 321.183Z" fill="#F9CD56"/>
</g>
<g filter="url(#filter15_f_635_292)">
<path d="M785.24 320.476C780.273 354.593 805.459 332.125 786.175 365.097C777.289 380.291 660.515 461.835 649.622 474.622C592.173 522.412 524.606 543.201 467.206 518.739C455.538 513.795 444.975 507.205 434.756 499.701C486.477 537.766 575.552 502.419 625.775 453.929C696.904 385.343 753.921 290.405 713.778 192.001C770.717 234.117 749.046 349.845 753.574 328.4L785.24 320.476Z" fill="#F9CD56"/>
</g>
<g filter="url(#filter16_f_635_292)">
<path d="M781.924 316.12C776.957 350.237 802.143 327.769 782.859 360.741C773.973 375.936 657.199 457.48 646.306 470.266C588.857 518.057 521.29 538.845 463.89 514.383C452.222 509.439 441.658 502.85 431.44 495.346C483.161 533.411 585.871 504.831 636.094 456.34C707.223 387.755 764.24 292.817 724.097 194.412C781.036 236.529 745.729 345.49 750.257 324.044L781.924 316.12Z" fill="#F9CD56"/>
</g>
<g filter="url(#filter17_f_635_292)">
<path d="M781.924 316.12C776.956 350.237 802.143 327.769 782.859 360.741C773.972 375.935 664.455 449.539 653.562 462.325C596.113 510.116 510.094 537.779 452.695 513.317C441.026 508.373 441.658 502.85 431.44 495.346C483.16 533.411 568.958 531.165 619.181 482.674C690.31 414.089 774.607 368.925 734.464 270.521C791.403 312.637 745.729 345.489 750.257 324.044L781.924 316.12Z" fill="#F9CD56"/>
</g>
<g filter="url(#filter18_f_635_292)">
<path d="M781.924 316.12C776.956 350.237 802.143 327.769 782.859 360.741C773.972 375.935 647.923 458.588 637.03 471.375C579.58 519.166 510.094 537.779 452.695 513.317C441.026 508.373 441.658 502.85 431.44 495.346C483.16 533.411 566.109 516.818 616.332 468.327C687.461 399.742 774.607 368.925 734.464 270.521C791.403 312.637 745.729 345.489 750.257 324.044L781.924 316.12Z" fill="#F9CD56"/>
</g>
</g>
</g>
</g>
<g opacity="0.4">
<path d="M674.567 270.072C676.47 258.396 682.448 248.592 697.752 241.449C749.438 217.396 810.787 218.365 854.516 177.134C876.949 155.944 887.74 127.099 888.657 96.5523C892.746 -47.7634 788.389 -104.668 743.93 -112.355C698.376 -120.244 663.975 -73.0915 645.594 -38.0243C622.928 5.17559 604.157 52.6519 565.683 84.6172C525.056 118.364 438.413 201.993 410.541 249.579C390.877 283.152 374.551 342.773 395.117 375.821C415.682 408.869 471.117 415.634 509.043 424.301C546.97 432.968 540.476 589.713 578.043 579.384C628.559 565.493 648.944 499.643 659.917 455.08C671.034 409.898 675.877 363.418 675.674 316.904C675.549 299.702 672.335 283.628 674.567 270.072Z" stroke="url(#paint11_linear_635_292)" stroke-width="1.6412" stroke-miterlimit="10"/>
<path d="M747.612 -121.172C699.084 -129.59 662.423 -79.2678 642.808 -41.9337C618.62 4.06419 598.669 54.7438 557.597 88.7671C514.283 124.714 426.877 200.884 397.182 251.632C376.181 287.448 362.566 348.026 384.516 383.299C404.133 414.822 454.772 422.807 490.404 432.462C527.106 442.42 525.408 581.368 562.541 573.601C613.916 562.791 639.681 504.878 656.257 463.793C672.921 422.565 682.607 378.626 686.511 333.612C687.948 316.936 686.408 301.143 689.434 287.446C691.94 275.747 697.927 265.674 711.868 257.615C732.894 245.5 754.771 236.736 775.919 227.366C793.971 219.395 811.499 210.868 827.495 198.886C835.258 193.085 842.516 186.188 849.522 178.037C868.498 155.825 878.028 126.794 878.978 95.1687C880.283 48.2456 872.441 8.86643 858.761 -23.1766C833.185 -83.2601 781.989 -115.233 747.612 -121.172Z" stroke="url(#paint12_linear_635_292)" stroke-width="1.6412" stroke-miterlimit="10"/>
<path d="M751.258 -130.051C699.755 -138.999 660.795 -85.5709 639.985 -45.9063C614.316 2.95308 593.105 56.7089 549.513 92.9173C503.513 131.065 415.281 199.814 383.723 253.661C361.448 291.68 350.521 353.319 373.776 390.689C392.483 420.75 438.391 429.917 471.625 440.534C507.142 451.847 510.215 573.103 546.86 567.667C599.133 560.001 630.136 509.938 652.355 472.395C674.422 435.033 689.134 393.786 697.145 350.272C700.12 334.226 700.253 318.714 704.097 304.772C707.27 293.011 713.289 282.565 725.804 273.631C745.096 259.862 764.257 248.291 782.419 236.107C797.8 225.83 812.445 215.218 825.976 201.684C832.368 195.238 838.381 187.616 844.286 178.828C859.859 155.824 868.033 126.315 869.096 93.7373C870.55 48.0443 865.391 7.87691 854.667 -26.3582C836.136 -85.8884 790.386 -123.278 751.258 -130.051Z" stroke="url(#paint13_linear_635_292)" stroke-width="1.6412" stroke-miterlimit="10"/>
<path d="M754.899 -138.931C700.358 -148.368 659.163 -91.8743 637.054 -49.9032C609.905 1.81774 587.41 58.7528 541.283 96.9796C492.636 137.392 403.601 198.617 370.181 255.562C346.632 295.785 338.353 358.421 362.993 398.015C380.75 426.551 421.943 437.065 452.842 448.607C487.11 461.314 495.082 564.797 531.214 561.797C584.425 557.338 620.562 515.101 648.551 481.02C676.062 447.589 695.759 408.97 707.941 366.916C712.415 351.436 714.261 336.269 718.859 322.122C722.699 310.299 728.687 299.52 739.814 289.774C757.372 274.351 773.817 259.974 789.057 244.935C801.705 232.391 813.568 219.719 824.595 204.569C829.719 197.502 834.361 189.235 839.291 179.731C851.501 155.998 858.32 126.01 859.456 92.4171C860.892 47.9699 858.329 7.15694 850.775 -29.4921C838.511 -88.1611 798.779 -131.324 754.899 -138.931Z" stroke="url(#paint14_linear_635_292)" stroke-width="1.6412" stroke-miterlimit="10"/>
<path d="M758.542 -147.811C701.027 -157.777 657.533 -98.1775 634.23 -53.8759C605.495 0.682522 581.844 60.7178 533.197 101.13C481.864 143.742 392.003 197.547 356.823 257.615C331.936 300.081 326.409 363.738 352.33 405.533C369.138 432.543 405.591 444.508 434.203 456.767C467.199 470.971 480.006 556.722 515.777 555.975C570.005 554.85 611.094 520.287 644.892 489.733C677.64 460.185 702.426 424.217 718.716 383.663C724.727 368.813 728.248 353.927 733.6 339.575C738.042 327.73 744.063 316.577 753.827 305.916C769.635 288.673 783.355 271.759 795.633 253.803C805.691 239.08 814.694 224.22 823.05 207.471C826.906 199.781 830.24 190.83 834.029 180.625C843.018 156.251 848.299 125.634 849.548 91.0887C851.029 47.8477 850.744 6.58683 846.552 -32.5948C840.467 -90.2599 807.276 -139.345 758.542 -147.811Z" stroke="url(#paint15_linear_635_292)" stroke-width="1.6412" stroke-miterlimit="10"/>
<path d="M762.186 -156.691C701.696 -167.187 655.902 -104.481 631.405 -57.849C601.189 -0.429027 576.318 62.7461 525.136 105.176C471.117 149.989 380.453 196.271 343.386 259.541C317.225 304.21 314.346 368.864 341.651 412.883C357.511 438.368 389.223 451.784 415.485 464.8C447.249 480.565 464.954 548.544 500.157 550.001C555.378 552.314 601.365 525.196 641.051 498.295C678.997 472.565 708.912 439.314 729.435 400.18C736.882 385.936 742.179 371.354 748.388 356.822C753.434 344.954 759.447 333.365 767.864 321.955C781.858 302.932 793.084 283.426 802.234 262.568C809.638 245.705 815.86 228.785 821.633 210.292C824.259 202.045 826.388 192.433 828.996 181.464C834.909 156.537 838.484 125.305 839.831 89.6414C841.357 47.6065 842.978 5.86531 842.543 -35.9195C841.923 -92.3124 815.671 -147.39 762.186 -156.691Z" stroke="url(#paint16_linear_635_292)" stroke-width="1.6412" stroke-miterlimit="10"/>
<path d="M765.806 -165.467C702.342 -176.493 654.312 -110.72 628.58 -61.8214C596.883 -1.5399 570.752 64.7114 517.051 109.327C460.385 156.404 368.918 195.162 329.988 261.531C302.554 308.403 302.3 374.157 330.973 420.234C345.923 444.258 372.793 459.1 396.768 472.834C427.235 490.199 449.878 540.469 484.578 544.091C540.767 549.945 591.739 530.129 637.313 506.881C680.481 484.867 715.564 454.395 740.234 416.825C749.179 403.147 756.15 388.846 763.153 374.173C768.866 362.242 774.808 350.256 781.878 338.098C794.019 317.23 802.766 295.3 808.874 271.397C813.688 252.355 817.153 233.271 820.255 213.178C821.613 204.31 822.537 194.036 823.901 182.343C826.902 156.847 828.631 124.913 830.154 88.2582C831.725 47.4294 834.942 5.13595 838.551 -39.0769C843.031 -94.4998 824.066 -155.435 765.806 -165.467Z" stroke="url(#paint17_linear_635_292)" stroke-width="1.6412" stroke-miterlimit="10"/>
<path d="M769.448 -174.347C702.947 -185.862 652.657 -116.921 625.731 -65.6913C592.552 -2.54828 565.201 66.8428 508.901 113.516C449.549 162.794 357.256 194.131 316.503 263.663C287.692 312.714 290.188 379.489 320.246 427.791C334.247 450.289 356.225 466.764 378.042 481.137C407.125 500.244 434.73 532.703 468.988 538.451C526.02 547.925 582.064 535.267 633.463 515.713C681.813 497.351 722 469.697 750.881 433.651C761.325 420.539 769.969 406.52 777.766 391.705C784.042 379.688 789.977 367.266 795.763 354.32C805.924 331.686 812.407 307.109 815.323 280.343C817.649 259.146 818.294 237.938 818.622 216.222C818.751 206.796 818.534 195.822 818.614 183.341C818.768 157.236 818.586 124.64 820.222 87.0326C821.965 47.3309 826.429 4.34956 834.43 -42.1558C843.891 -96.7994 832.46 -163.481 769.448 -174.347Z" stroke="url(#paint18_linear_635_292)" stroke-width="1.6412" stroke-miterlimit="10"/>
<path d="M817.308 219.068C812.051 168.117 798.748 76.3267 830.374 -45.2741C844.492 -99.377 840.895 -171.463 773.093 -183.227C703.616 -195.272 651.028 -123.224 622.867 -69.7277C588.167 -3.78669 559.596 68.7441 500.777 117.602C438.778 169.145 345.682 192.958 303.066 265.588C272.982 316.843 278.166 384.679 309.568 435.141C340.971 485.603 395.544 519.178 453.433 532.438C511.386 545.659 572.447 539.93 629.75 524.196C746.055 492.199 822.961 413.042 822.051 289.029C821.891 265.677 819.714 242.345 817.308 219.068Z" stroke="url(#paint19_linear_635_292)" stroke-width="1.6412" stroke-miterlimit="10"/>
</g>
</g>
<defs>
<filter id="filter0_f_635_292" x="326.464" y="-80.495" width="516.461" height="668.293" filterUnits="userSpaceOnUse" color-interpolation-filters="sRGB">
<feFlood flood-opacity="0" result="BackgroundImageFix"/>
<feBlend mode="normal" in="SourceGraphic" in2="BackgroundImageFix" result="shape"/>
<feGaussianBlur stdDeviation="7.26216" result="effect1_foregroundBlur_635_292"/>
</filter>
<filter id="filter1_f_635_292" x="284.747" y="-115.453" width="580.042" height="731.987" filterUnits="userSpaceOnUse" color-interpolation-filters="sRGB">
<feFlood flood-opacity="0" result="BackgroundImageFix"/>
<feBlend mode="normal" in="SourceGraphic" in2="BackgroundImageFix" result="shape"/>
<feGaussianBlur stdDeviation="21.7865" result="effect1_foregroundBlur_635_292"/>
</filter>
<filter id="filter2_f_635_292" x="265.382" y="-134.819" width="618.774" height="770.719" filterUnits="userSpaceOnUse" color-interpolation-filters="sRGB">
<feFlood flood-opacity="0" result="BackgroundImageFix"/>
<feBlend mode="normal" in="SourceGraphic" in2="BackgroundImageFix" result="shape"/>
<feGaussianBlur stdDeviation="31.4693" result="effect1_foregroundBlur_635_292"/>
</filter>
<filter id="filter3_f_635_292" x="265.382" y="-134.819" width="618.774" height="770.719" filterUnits="userSpaceOnUse" color-interpolation-filters="sRGB">
<feFlood flood-opacity="0" result="BackgroundImageFix"/>
<feBlend mode="normal" in="SourceGraphic" in2="BackgroundImageFix" result="shape"/>
<feGaussianBlur stdDeviation="31.4693" result="effect1_foregroundBlur_635_292"/>
</filter>
<filter id="filter4_f_635_292" x="178.236" y="-221.965" width="769.095" height="944.513" filterUnits="userSpaceOnUse" color-interpolation-filters="sRGB">
<feFlood flood-opacity="0" result="BackgroundImageFix"/>
<feBlend mode="normal" in="SourceGraphic" in2="BackgroundImageFix" result="shape"/>
<feGaussianBlur stdDeviation="75.0423" result="effect1_foregroundBlur_635_292"/>
</filter>
<filter id="filter5_f_635_292" x="223.917" y="-180.818" width="662.824" height="873.163" filterUnits="userSpaceOnUse" color-interpolation-filters="sRGB">
<feFlood flood-opacity="0" result="BackgroundImageFix"/>
<feBlend mode="normal" in="SourceGraphic" in2="BackgroundImageFix" result="shape"/>
<feGaussianBlur stdDeviation="45.9937" result="effect1_foregroundBlur_635_292"/>
</filter>
<filter id="filter6_f_635_292" x="117.405" y="-287.33" width="875.848" height="1086.19" filterUnits="userSpaceOnUse" color-interpolation-filters="sRGB">
<feFlood flood-opacity="0" result="BackgroundImageFix"/>
<feBlend mode="normal" in="SourceGraphic" in2="BackgroundImageFix" result="shape"/>
<feGaussianBlur stdDeviation="99.2495" result="effect1_foregroundBlur_635_292"/>
</filter>
<filter id="filter7_f_635_292" x="20.5766" y="-384.158" width="1069.51" height="1279.84" filterUnits="userSpaceOnUse" color-interpolation-filters="sRGB">
<feFlood flood-opacity="0" result="BackgroundImageFix"/>
<feBlend mode="normal" in="SourceGraphic" in2="BackgroundImageFix" result="shape"/>
<feGaussianBlur stdDeviation="147.664" result="effect1_foregroundBlur_635_292"/>
</filter>
<filter id="filter8_f_635_292" x="416.948" y="329.61" width="389.961" height="207.452" filterUnits="userSpaceOnUse" color-interpolation-filters="sRGB">
<feFlood flood-opacity="0" result="BackgroundImageFix"/>
<feBlend mode="normal" in="SourceGraphic" in2="BackgroundImageFix" result="shape"/>
<feGaussianBlur stdDeviation="2.97408" result="effect1_foregroundBlur_635_292"/>
</filter>
<filter id="filter9_f_635_292" x="421.851" y="185.331" width="370.695" height="344.539" filterUnits="userSpaceOnUse" color-interpolation-filters="sRGB">
<feFlood flood-opacity="0" result="BackgroundImageFix"/>
<feBlend mode="normal" in="SourceGraphic" in2="BackgroundImageFix" result="shape"/>
<feGaussianBlur stdDeviation="2.97408" result="effect1_foregroundBlur_635_292"/>
</filter>
<filter id="filter10_f_635_292" x="364.748" y="128.228" width="484.9" height="458.744" filterUnits="userSpaceOnUse" color-interpolation-filters="sRGB">
<feFlood flood-opacity="0" result="BackgroundImageFix"/>
<feBlend mode="normal" in="SourceGraphic" in2="BackgroundImageFix" result="shape"/>
<feGaussianBlur stdDeviation="31.5253" result="effect1_foregroundBlur_635_292"/>
</filter>
<filter id="filter11_f_635_292" x="393.299" y="156.779" width="427.798" height="401.642" filterUnits="userSpaceOnUse" color-interpolation-filters="sRGB">
<feFlood flood-opacity="0" result="BackgroundImageFix"/>
<feBlend mode="normal" in="SourceGraphic" in2="BackgroundImageFix" result="shape"/>
<feGaussianBlur stdDeviation="17.2497" result="effect1_foregroundBlur_635_292"/>
</filter>
<filter id="filter12_f_635_292" x="393.299" y="156.779" width="427.798" height="401.642" filterUnits="userSpaceOnUse" color-interpolation-filters="sRGB">
<feFlood flood-opacity="0" result="BackgroundImageFix"/>
<feBlend mode="normal" in="SourceGraphic" in2="BackgroundImageFix" result="shape"/>
<feGaussianBlur stdDeviation="17.2497" result="effect1_foregroundBlur_635_292"/>
</filter>
<filter id="filter13_f_635_292" x="388.397" y="156.779" width="432.698" height="401.642" filterUnits="userSpaceOnUse" color-interpolation-filters="sRGB">
<feFlood flood-opacity="0" result="BackgroundImageFix"/>
<feBlend mode="normal" in="SourceGraphic" in2="BackgroundImageFix" result="shape"/>
<feGaussianBlur stdDeviation="17.2497" result="effect1_foregroundBlur_635_292"/>
</filter>
<filter id="filter14_f_635_292" x="426.697" y="174.261" width="389.729" height="370.961" filterUnits="userSpaceOnUse" color-interpolation-filters="sRGB">
<feFlood flood-opacity="0" result="BackgroundImageFix"/>
<feBlend mode="normal" in="SourceGraphic" in2="BackgroundImageFix" result="shape"/>
<feGaussianBlur stdDeviation="7.73261" result="effect1_foregroundBlur_635_292"/>
</filter>
<filter id="filter15_f_635_292" x="416.911" y="174.156" width="394.488" height="372.738" filterUnits="userSpaceOnUse" color-interpolation-filters="sRGB">
<feFlood flood-opacity="0" result="BackgroundImageFix"/>
<feBlend mode="normal" in="SourceGraphic" in2="BackgroundImageFix" result="shape"/>
<feGaussianBlur stdDeviation="8.92225" result="effect1_foregroundBlur_635_292"/>
</filter>
<filter id="filter16_f_635_292" x="421.922" y="184.896" width="377.833" height="349.316" filterUnits="userSpaceOnUse" color-interpolation-filters="sRGB">
<feFlood flood-opacity="0" result="BackgroundImageFix"/>
<feBlend mode="normal" in="SourceGraphic" in2="BackgroundImageFix" result="shape"/>
<feGaussianBlur stdDeviation="4.75853" result="effect1_foregroundBlur_635_292"/>
</filter>
<filter id="filter17_f_635_292" x="402.888" y="241.97" width="415.901" height="308.974" filterUnits="userSpaceOnUse" color-interpolation-filters="sRGB">
<feFlood flood-opacity="0" result="BackgroundImageFix"/>
<feBlend mode="normal" in="SourceGraphic" in2="BackgroundImageFix" result="shape"/>
<feGaussianBlur stdDeviation="14.2756" result="effect1_foregroundBlur_635_292"/>
</filter>
<filter id="filter18_f_635_292" x="402.888" y="241.97" width="415.901" height="310.66" filterUnits="userSpaceOnUse" color-interpolation-filters="sRGB">
<feFlood flood-opacity="0" result="BackgroundImageFix"/>
<feBlend mode="normal" in="SourceGraphic" in2="BackgroundImageFix" result="shape"/>
<feGaussianBlur stdDeviation="14.2756" result="effect1_foregroundBlur_635_292"/>
</filter>
<linearGradient id="paint0_linear_635_292" x1="822.24" y1="-287.588" x2="822.24" y2="565.679" gradientUnits="userSpaceOnUse">
<stop stop-color="#C4C4C4" stop-opacity="0"/>
<stop offset="0.380208" stop-color="#C4C4C4"/>
<stop offset="0.507937" stop-color="#C4C4C4"/>
<stop offset="1" stop-color="#C4C4C4" stop-opacity="0"/>
</linearGradient>
<linearGradient id="paint1_linear_635_292" x1="787.384" y1="6.9132" x2="496.264" y2="600.765" gradientUnits="userSpaceOnUse">
<stop stop-color="#F9CD56"/>
<stop offset="1" stop-color="#F9CD56"/>
</linearGradient>
<linearGradient id="paint2_linear_635_292" x1="782.297" y1="4.41965" x2="491.177" y2="598.271" gradientUnits="userSpaceOnUse">
<stop stop-color="#F9CD56"/>
<stop offset="1" stop-color="#F9CD56"/>
</linearGradient>
<linearGradient id="paint3_linear_635_292" x1="772.766" y1="0.536005" x2="479.464" y2="598.838" gradientUnits="userSpaceOnUse">
<stop stop-color="#F9CD56"/>
<stop offset="1" stop-color="#F9CD56"/>
</linearGradient>
<linearGradient id="paint4_linear_635_292" x1="772.766" y1="0.536005" x2="479.464" y2="598.838" gradientUnits="userSpaceOnUse">
<stop stop-color="#F9CD56"/>
<stop offset="1" stop-color="#F9CD56"/>
</linearGradient>
<linearGradient id="paint5_linear_635_292" x1="772.766" y1="0.536005" x2="479.464" y2="598.838" gradientUnits="userSpaceOnUse">
<stop stop-color="#F9CD56"/>
<stop offset="1" stop-color="#F9CD56"/>
</linearGradient>
<linearGradient id="paint6_linear_635_292" x1="758.778" y1="-6.32123" x2="465.476" y2="591.981" gradientUnits="userSpaceOnUse">
<stop stop-color="#F9CD56"/>
<stop offset="1" stop-color="#F9CD56"/>
</linearGradient>
<linearGradient id="paint7_linear_635_292" x1="763.308" y1="-34.4626" x2="446.629" y2="611.526" gradientUnits="userSpaceOnUse">
<stop stop-color="#F9CD56"/>
<stop offset="1" stop-color="#F9CD56"/>
</linearGradient>
<linearGradient id="paint8_linear_635_292" x1="763.308" y1="-34.4626" x2="446.629" y2="611.526" gradientUnits="userSpaceOnUse">
<stop stop-color="#F9CD56"/>
<stop offset="1" stop-color="#F9CD56"/>
</linearGradient>
<linearGradient id="paint9_linear_635_292" x1="763.308" y1="-34.4626" x2="446.629" y2="611.526" gradientUnits="userSpaceOnUse">
<stop stop-color="#F9CD56"/>
<stop offset="1" stop-color="#F9CD56"/>
</linearGradient>
<linearGradient id="paint10_linear_635_292" x1="698.625" y1="384.067" x2="425.495" y2="443.152" gradientUnits="userSpaceOnUse">
<stop stop-color="#C4C4C4" stop-opacity="0"/>
<stop offset="0.565737" stop-color="#C4C4C4"/>
<stop offset="1" stop-color="#C4C4C4" stop-opacity="0"/>
</linearGradient>
<linearGradient id="paint11_linear_635_292" x1="917.207" y1="66.7803" x2="402.229" y2="387.251" gradientUnits="userSpaceOnUse">
<stop stop-color="#F2B000"/>
<stop offset="0.989583" stop-color="#F9CD56"/>
</linearGradient>
<linearGradient id="paint12_linear_635_292" x1="912.599" y1="59.2338" x2="386.562" y2="386.586" gradientUnits="userSpaceOnUse">
<stop stop-color="#F2B000"/>
<stop offset="0.989583" stop-color="#F9CD56"/>
</linearGradient>
<linearGradient id="paint13_linear_635_292" x1="909.534" y1="51.1306" x2="371.015" y2="386.251" gradientUnits="userSpaceOnUse">
<stop stop-color="#F2B000"/>
<stop offset="0.989583" stop-color="#F9CD56"/>
</linearGradient>
<linearGradient id="paint14_linear_635_292" x1="908.142" y1="42.9518" x2="355.897" y2="386.613" gradientUnits="userSpaceOnUse">
<stop stop-color="#F2B000"/>
<stop offset="0.989583" stop-color="#F9CD56"/>
</linearGradient>
<linearGradient id="paint15_linear_635_292" x1="908.563" y1="35.2664" x2="341.508" y2="388.144" gradientUnits="userSpaceOnUse">
<stop stop-color="#F2B000"/>
<stop offset="0.989583" stop-color="#F9CD56"/>
</linearGradient>
<linearGradient id="paint16_linear_635_292" x1="911.054" y1="28.8214" x2="328.318" y2="391.457" gradientUnits="userSpaceOnUse">
<stop stop-color="#F2B000"/>
<stop offset="0.989583" stop-color="#F9CD56"/>
</linearGradient>
<linearGradient id="paint17_linear_635_292" x1="916.242" y1="25.1945" x2="317.144" y2="398.012" gradientUnits="userSpaceOnUse">
<stop stop-color="#F2B000"/>
<stop offset="0.989583" stop-color="#F9CD56"/>
</linearGradient>
<linearGradient id="paint18_linear_635_292" x1="923.105" y1="23.1537" x2="307.022" y2="406.541" gradientUnits="userSpaceOnUse">
<stop stop-color="#F2B000"/>
<stop offset="0.989583" stop-color="#F9CD56"/>
</linearGradient>
<linearGradient id="paint19_linear_635_292" x1="931.087" y1="22.1211" x2="297.793" y2="416.219" gradientUnits="userSpaceOnUse">
<stop stop-color="#F2B000"/>
<stop offset="0.989583" stop-color="#F9CD56"/>
</linearGradient>
</defs>
</svg>
