<svg width="1919" height="564" viewBox="0 0 1919 564" fill="none" xmlns="http://www.w3.org/2000/svg">
<mask id="mask0_635_109" style="mask-type:alpha" maskUnits="userSpaceOnUse" x="0" y="0" width="1919" height="564">
<rect width="1919" height="564" fill="#1F1F1F"/>
</mask>
<g mask="url(#mask0_635_109)">
<g opacity="0.7">
<mask id="mask1_635_109" style="mask-type:alpha" maskUnits="userSpaceOnUse" x="1106" y="12" width="1326" height="1305">
<rect x="1529.73" y="12.4248" width="1003.76" height="960.65" transform="rotate(26.1152 1529.73 12.4248)" fill="url(#paint0_linear_635_109)"/>
</mask>
<g mask="url(#mask1_635_109)">
<path d="M2005.66 765.135C1915.16 949.749 1706.2 1032.97 1538.98 950.991C1521.44 942.393 1505 932.29 1489.79 920.929C1645.69 963.88 1821.55 879.889 1902.58 714.603C1983.6 549.318 1942.25 358.93 1812.85 261.934C1831.14 266.995 1849.2 273.806 1866.74 282.404C2033.96 364.378 2096.16 580.522 2005.66 765.135Z" fill="url(#paint1_linear_635_109)"/>
<g filter="url(#filter0_f_635_109)">
<path d="M1994.2 759.521C1903.7 944.134 1706.2 1032.97 1538.98 950.991C1521.44 942.393 1505 932.29 1489.79 920.929C1645.69 963.88 1833 885.504 1914.03 720.218C1995.06 554.932 1942.25 358.93 1812.85 261.934C1831.14 266.995 1849.2 273.806 1866.74 282.404C2033.96 364.378 2084.71 574.908 1994.2 759.521Z" fill="url(#paint2_linear_635_109)"/>
</g>
<g filter="url(#filter1_f_635_109)">
<path d="M1988.48 756.713C1897.98 941.326 1691.94 1033.08 1524.72 951.103C1507.18 942.505 1490.74 932.402 1475.53 921.04C1631.43 963.991 1838.73 888.311 1919.76 723.025C2000.79 557.739 1926.87 352.276 1797.47 255.28C1815.76 260.342 1833.82 267.152 1851.36 275.75C2018.57 357.724 2078.98 572.1 1988.48 756.713Z" fill="url(#paint3_linear_635_109)"/>
</g>
<g filter="url(#filter2_f_635_109)">
<path d="M1988.48 756.713C1897.98 941.326 1691.94 1033.08 1524.72 951.103C1507.18 942.505 1490.74 932.402 1475.53 921.04C1631.43 963.991 1838.73 888.311 1919.76 723.025C2000.79 557.739 1926.87 352.276 1797.47 255.28C1815.76 260.342 1833.82 267.152 1851.36 275.75C2018.57 357.724 2078.98 572.1 1988.48 756.713Z" fill="url(#paint4_linear_635_109)"/>
</g>
<g filter="url(#filter3_f_635_109)">
<path d="M1988.48 756.713C1897.98 941.326 1691.94 1033.08 1524.72 951.103C1507.18 942.505 1490.74 932.402 1475.53 921.04C1631.43 963.991 1838.73 888.311 1919.76 723.025C2000.79 557.739 1926.87 352.276 1797.47 255.28C1815.76 260.342 1833.82 267.152 1851.36 275.75C2018.57 357.724 2078.98 572.1 1988.48 756.713Z" fill="url(#paint5_linear_635_109)"/>
</g>
<g filter="url(#filter4_f_635_109)">
<path d="M1951.19 753.084C1860.69 937.697 1691.94 1033.08 1524.72 951.103C1507.18 942.505 1490.74 932.402 1475.53 921.04C1631.43 963.991 1855.05 902.102 1938.37 732.149C2042.76 519.204 1926.87 352.276 1797.47 255.28C1815.76 260.342 1833.82 267.152 1851.36 275.75C2018.57 357.724 2041.69 568.471 1951.19 753.084Z" fill="url(#paint6_linear_635_109)"/>
</g>
<g filter="url(#filter5_f_635_109)">
<path d="M1951.19 753.084C1860.69 937.697 1699.53 1069.21 1532.31 987.232C1514.78 978.634 1476.76 909.301 1461.55 897.94C1617.45 940.89 1855.05 902.102 1938.37 732.149C2042.76 519.204 1900.99 362.498 1771.59 265.502C1763.41 282.18 1824.78 228.539 1842.32 237.136C2009.54 319.111 2041.69 568.471 1951.19 753.084Z" fill="url(#paint7_linear_635_109)"/>
</g>
<g filter="url(#filter6_f_635_109)">
<path d="M1951.19 753.084C1860.69 937.697 1699.53 1069.21 1532.31 987.232C1514.78 978.634 1476.76 909.301 1461.55 897.94C1617.45 940.89 1855.05 902.102 1938.37 732.149C2042.76 519.204 1900.99 362.498 1771.59 265.502C1763.41 282.18 1824.78 228.539 1842.32 237.136C2009.54 319.111 2041.69 568.471 1951.19 753.084Z" fill="url(#paint8_linear_635_109)"/>
</g>
<g filter="url(#filter7_f_635_109)">
<path d="M1951.19 753.084C1860.69 937.697 1699.53 1069.21 1532.31 987.232C1514.78 978.634 1476.76 909.301 1461.55 897.94C1617.45 940.891 1855.05 902.102 1938.37 732.149C2042.76 519.204 1900.99 362.498 1771.59 265.502C1763.41 282.18 1824.78 228.539 1842.32 237.136C2009.54 319.111 2041.69 568.471 1951.19 753.084Z" fill="url(#paint9_linear_635_109)"/>
</g>
</g>
<mask id="mask2_635_109" style="mask-type:alpha" maskUnits="userSpaceOnUse" x="1559" y="713" width="465" height="341">
<path opacity="0.8" d="M1559.38 905.745L1658.84 1053.65L1860.75 991.588L2023.11 713.994L1866.83 733.572L1826.02 729.25L1581.3 868.259L1559.38 905.745Z" fill="url(#paint10_linear_635_109)"/>
</mask>
<g mask="url(#mask2_635_109)">
</g>
<g opacity="0.4">
<path d="M1865.35 640.266C1867.49 627.121 1874.22 616.084 1891.45 608.041C1949.64 580.962 2018.71 582.052 2067.94 535.632C2093.2 511.776 2105.35 479.301 2106.38 444.91C2110.99 282.432 1993.49 218.366 1943.44 209.711C1892.15 200.83 1853.42 253.916 1832.73 293.397C1807.21 342.033 1786.08 395.484 1742.76 431.473C1697.02 469.466 1599.47 563.62 1568.1 617.194C1545.96 654.993 1527.58 722.117 1550.73 759.324C1573.88 796.531 1636.29 804.148 1678.99 813.906C1721.69 823.663 1714.38 1000.13 1756.68 988.505C1813.55 972.866 1836.5 898.729 1848.85 848.557C1861.37 797.689 1866.82 745.36 1866.59 692.993C1866.45 673.625 1862.84 655.528 1865.35 640.266Z" stroke="url(#paint11_linear_635_109)" stroke-width="1.6412" stroke-miterlimit="10"/>
<path d="M1947.59 199.785C1892.95 190.308 1851.68 246.963 1829.59 288.995C1802.36 340.782 1779.9 397.84 1733.66 436.145C1684.9 476.616 1586.49 562.371 1553.06 619.506C1529.41 659.829 1514.09 728.031 1538.8 767.743C1560.88 803.233 1617.9 812.223 1658.01 823.093C1699.33 834.304 1697.42 990.739 1739.23 981.994C1797.07 969.824 1826.07 904.623 1844.74 858.367C1863.5 811.951 1874.4 762.482 1878.8 711.803C1880.42 693.029 1878.68 675.248 1882.09 659.827C1884.91 646.656 1891.65 635.315 1907.35 626.242C1931.02 612.603 1955.65 602.735 1979.46 592.186C1999.78 583.212 2019.52 573.612 2037.52 560.122C2046.26 553.591 2054.44 545.826 2062.32 536.649C2083.69 511.641 2094.42 478.958 2095.49 443.352C2096.96 390.524 2088.13 346.189 2072.73 310.113C2043.93 242.468 1986.29 206.471 1947.59 199.785Z" stroke="url(#paint12_linear_635_109)" stroke-width="1.6412" stroke-miterlimit="10"/>
<path d="M1951.69 189.788C1893.71 179.715 1849.84 239.866 1826.41 284.523C1797.51 339.531 1773.63 400.052 1724.56 440.817C1672.77 483.765 1573.43 561.166 1537.9 621.79C1512.82 664.594 1500.52 733.99 1526.7 776.063C1547.76 809.907 1599.45 820.227 1636.87 832.181C1676.85 844.918 1680.31 981.433 1721.57 975.314C1780.42 966.683 1815.33 910.319 1840.34 868.051C1865.18 825.988 1881.75 779.55 1890.77 730.559C1894.12 712.494 1894.27 695.03 1898.59 679.334C1902.17 666.092 1908.94 654.332 1923.03 644.273C1944.75 628.772 1966.33 615.744 1986.77 602.027C2004.09 590.456 2020.58 578.509 2035.81 563.272C2043.01 556.014 2049.78 547.433 2056.43 537.539C2073.96 511.64 2083.16 478.418 2084.36 441.74C2086 390.297 2080.19 345.074 2068.11 306.531C2047.25 239.509 1995.74 197.413 1951.69 189.788Z" stroke="url(#paint13_linear_635_109)" stroke-width="1.6412" stroke-miterlimit="10"/>
<path d="M1955.79 179.791C1894.39 169.166 1848.01 232.77 1823.12 280.023C1792.55 338.253 1767.22 402.353 1715.29 445.391C1660.52 490.889 1560.28 559.819 1522.66 623.931C1496.14 669.216 1486.82 739.735 1514.56 784.312C1534.56 816.439 1580.93 828.276 1615.72 841.27C1654.3 855.576 1663.28 972.083 1703.96 968.705C1763.86 963.685 1804.55 916.132 1836.06 877.762C1867.03 840.124 1889.21 796.645 1902.92 749.298C1907.96 731.871 1910.04 714.794 1915.22 698.867C1919.54 685.556 1926.28 673.42 1938.81 662.448C1958.58 645.084 1977.09 628.898 1994.25 611.967C2008.49 597.844 2021.84 583.577 2034.26 566.521C2040.03 558.563 2045.25 549.256 2050.8 538.556C2064.55 511.837 2072.23 478.075 2073.51 440.254C2075.12 390.213 2072.24 344.264 2063.73 303.003C2049.93 236.95 2005.19 188.356 1955.79 179.791Z" stroke="url(#paint14_linear_635_109)" stroke-width="1.6412" stroke-miterlimit="10"/>
<path d="M1959.89 169.794C1895.14 158.573 1846.17 225.673 1819.94 275.55C1787.59 336.975 1760.96 404.565 1706.19 450.063C1648.4 498.038 1547.23 558.614 1507.62 626.242C1479.6 674.052 1473.38 745.72 1502.56 792.775C1521.48 823.185 1562.52 836.656 1594.74 850.457C1631.89 866.449 1646.3 962.992 1686.58 962.15C1747.63 960.884 1793.89 921.971 1831.94 887.572C1868.81 854.305 1896.72 813.811 1915.06 768.153C1921.82 751.434 1925.79 734.674 1931.81 718.517C1936.82 705.18 1943.59 692.625 1954.59 680.622C1972.38 661.209 1987.83 642.166 2001.65 621.95C2012.98 605.375 2023.11 588.644 2032.52 569.787C2036.86 561.13 2040.62 551.052 2044.88 539.563C2055 512.122 2060.95 477.651 2062.35 438.758C2064.02 390.076 2063.7 343.622 2058.98 299.509C2052.13 234.587 2014.76 179.325 1959.89 169.794Z" stroke="url(#paint15_linear_635_109)" stroke-width="1.6412" stroke-miterlimit="10"/>
<path d="M1964 159.796C1895.89 147.979 1844.34 218.576 1816.76 271.077C1782.74 335.723 1754.74 406.849 1697.11 454.619C1636.3 505.072 1534.22 557.177 1492.49 628.41C1463.04 678.701 1459.8 751.491 1490.54 801.05C1508.39 829.743 1544.1 844.847 1573.66 859.501C1609.42 877.25 1629.36 953.784 1668.99 955.424C1731.16 958.029 1782.94 927.497 1827.62 897.211C1870.34 868.243 1904.02 830.807 1927.12 786.749C1935.51 770.712 1941.47 754.295 1948.46 737.934C1954.14 724.572 1960.91 711.525 1970.39 698.679C1986.14 677.261 1998.78 655.301 2009.08 631.818C2017.42 612.833 2024.42 593.783 2030.92 572.964C2033.88 563.679 2036.28 552.856 2039.21 540.507C2045.87 512.443 2049.9 477.281 2051.41 437.129C2053.13 389.804 2054.96 342.81 2054.47 295.766C2053.77 232.276 2024.21 170.267 1964 159.796Z" stroke="url(#paint16_linear_635_109)" stroke-width="1.6412" stroke-miterlimit="10"/>
<path d="M1968.07 149.915C1896.62 137.502 1842.54 211.552 1813.57 266.605C1777.89 334.473 1748.47 409.062 1688.01 459.292C1624.21 512.294 1521.23 555.929 1477.41 630.65C1446.52 683.422 1446.23 757.451 1478.51 809.326C1495.35 836.373 1525.6 853.084 1552.59 868.546C1586.89 888.096 1612.38 944.693 1651.45 948.771C1714.71 955.362 1772.1 933.051 1823.41 906.878C1872.01 882.094 1911.5 847.786 1939.28 805.488C1949.35 790.089 1957.2 773.988 1965.08 757.468C1971.51 744.036 1978.2 730.542 1986.16 716.854C1999.83 693.36 2009.68 668.669 2016.56 641.758C2021.98 620.32 2025.88 598.834 2029.37 576.213C2030.9 566.228 2031.94 554.662 2033.48 541.497C2036.86 512.792 2038.8 476.84 2040.52 435.572C2042.29 389.605 2045.91 341.989 2049.97 292.212C2055.01 229.814 2033.66 161.21 1968.07 149.915Z" stroke="url(#paint17_linear_635_109)" stroke-width="1.6412" stroke-miterlimit="10"/>
<path d="M1972.17 139.918C1897.3 126.953 1840.69 204.571 1810.37 262.248C1773.02 333.337 1742.22 411.461 1678.84 464.008C1612.02 519.488 1508.11 554.768 1462.23 633.05C1429.79 688.275 1432.6 763.454 1466.44 817.834C1482.2 843.163 1506.95 861.712 1531.51 877.893C1564.25 899.406 1595.33 935.95 1633.9 942.421C1698.11 953.087 1761.21 938.836 1819.08 916.821C1873.51 896.148 1918.75 865.014 1951.27 824.431C1963.03 809.67 1972.76 793.886 1981.54 777.207C1988.6 763.678 1995.29 749.692 2001.8 735.117C2013.24 709.635 2020.54 681.965 2023.82 651.83C2026.44 627.966 2027.17 604.089 2027.54 579.639C2027.68 569.027 2027.44 556.672 2027.53 542.62C2027.7 513.23 2027.5 476.532 2029.34 434.192C2031.3 389.494 2036.33 341.103 2045.33 288.745C2055.99 227.225 2043.12 152.151 1972.17 139.918Z" stroke="url(#paint18_linear_635_109)" stroke-width="1.6412" stroke-miterlimit="10"/>
<path d="M2026.05 582.843C2020.14 525.481 2005.16 422.138 2040.77 285.234C2056.66 224.323 2052.61 143.165 1976.28 129.921C1898.06 116.36 1838.85 197.475 1807.14 257.703C1768.08 331.943 1735.91 413.602 1669.69 468.609C1599.89 526.637 1495.08 553.448 1447.1 635.219C1413.23 692.924 1419.06 769.297 1454.42 826.109C1489.77 882.922 1551.21 920.722 1616.39 935.651C1681.63 950.536 1750.38 944.086 1814.89 926.371C1945.83 890.348 2032.42 801.229 2031.4 661.609C2031.21 635.318 2028.76 609.05 2026.05 582.843Z" stroke="url(#paint19_linear_635_109)" stroke-width="1.6412" stroke-miterlimit="10"/>
</g>
</g>
<g opacity="0.7">
<mask id="mask3_635_109" style="mask-type:alpha" maskUnits="userSpaceOnUse" x="-725" y="-464" width="1250" height="1231">
<rect width="946.5" height="905.845" transform="matrix(-0.897911 0.440177 0.440177 0.897911 125.465 -463.217)" fill="url(#paint20_linear_635_109)"/>
</mask>
<g mask="url(#mask3_635_109)">
<path d="M-323.312 246.551C-237.973 420.632 -40.9384 499.102 116.74 421.804C133.278 413.697 148.784 404.17 163.123 393.457C16.1216 433.957 -149.708 354.758 -226.112 198.902C-302.517 43.0459 -263.52 -136.48 -141.502 -227.943C-158.753 -223.17 -175.781 -216.748 -192.318 -208.641C-349.997 -131.343 -408.65 72.4704 -323.312 246.551Z" fill="url(#paint21_linear_635_109)"/>
<g filter="url(#filter9_f_635_109)">
<path d="M-312.512 241.257C-227.173 415.338 -40.9384 499.102 116.74 421.804C133.278 413.697 148.784 404.17 163.123 393.457C16.1216 433.957 -160.508 360.053 -236.912 204.196C-313.317 48.3403 -263.52 -136.48 -141.502 -227.943C-158.753 -223.17 -175.781 -216.748 -192.318 -208.641C-349.997 -131.343 -397.85 67.176 -312.512 241.257Z" fill="url(#paint22_linear_635_109)"/>
</g>
<g filter="url(#filter10_f_635_109)">
<path d="M-307.114 238.609C-221.775 412.69 -27.4932 499.207 130.185 421.909C146.723 413.802 162.229 404.275 176.568 393.562C29.5668 434.062 -165.91 362.699 -242.314 206.843C-318.719 50.987 -249.016 -142.755 -126.998 -234.217C-144.249 -229.444 -161.277 -223.022 -177.814 -214.915C-335.493 -137.617 -392.452 64.5283 -307.114 238.609Z" fill="url(#paint23_linear_635_109)"/>
</g>
<g filter="url(#filter11_f_635_109)">
<path d="M-307.114 238.609C-221.775 412.69 -27.4932 499.207 130.185 421.909C146.723 413.802 162.229 404.275 176.568 393.562C29.5668 434.062 -165.91 362.699 -242.314 206.843C-318.719 50.987 -249.016 -142.755 -126.998 -234.217C-144.249 -229.444 -161.277 -223.022 -177.814 -214.915C-335.493 -137.617 -392.452 64.5283 -307.114 238.609Z" fill="url(#paint24_linear_635_109)"/>
</g>
<g filter="url(#filter12_f_635_109)">
<path d="M-307.114 238.609C-221.775 412.69 -27.4932 499.207 130.185 421.909C146.723 413.802 162.229 404.275 176.568 393.562C29.5668 434.062 -165.91 362.699 -242.314 206.843C-318.719 50.987 -249.016 -142.755 -126.998 -234.217C-144.249 -229.444 -161.277 -223.022 -177.814 -214.915C-335.493 -137.617 -392.452 64.5283 -307.114 238.609Z" fill="url(#paint25_linear_635_109)"/>
</g>
<g filter="url(#filter13_f_635_109)">
<path d="M-271.954 235.187C-186.615 409.268 -27.4932 499.207 130.185 421.909C146.723 413.802 162.229 404.275 176.568 393.562C29.5668 434.062 -181.302 375.704 -259.864 215.446C-358.299 14.65 -249.016 -142.755 -126.998 -234.217C-144.249 -229.444 -161.277 -223.022 -177.814 -214.915C-335.493 -137.617 -357.293 61.1062 -271.954 235.187Z" fill="url(#paint26_linear_635_109)"/>
</g>
<g filter="url(#filter14_f_635_109)">
<path d="M-271.954 235.187C-186.615 409.268 -34.6525 533.274 123.026 455.977C139.563 447.87 175.411 382.492 189.75 371.779C42.749 412.279 -181.302 375.704 -259.864 215.446C-358.299 14.6499 -224.616 -133.116 -102.598 -224.579C-94.8881 -208.851 -152.754 -259.433 -169.291 -251.326C-326.97 -174.028 -357.292 61.1061 -271.954 235.187Z" fill="url(#paint27_linear_635_109)"/>
</g>
<g filter="url(#filter15_f_635_109)">
<path d="M-271.954 235.187C-186.615 409.268 -34.6525 533.274 123.026 455.977C139.563 447.87 175.411 382.492 189.75 371.779C42.749 412.279 -181.302 375.704 -259.864 215.446C-358.299 14.6499 -224.616 -133.116 -102.598 -224.579C-94.8881 -208.851 -152.754 -259.433 -169.291 -251.326C-326.97 -174.028 -357.292 61.1061 -271.954 235.187Z" fill="url(#paint28_linear_635_109)"/>
</g>
<g filter="url(#filter16_f_635_109)">
<path d="M-271.954 235.187C-186.615 409.268 -34.6525 533.274 123.026 455.977C139.564 447.87 175.411 382.492 189.75 371.779C42.749 412.279 -181.302 375.704 -259.864 215.446C-358.299 14.6499 -224.616 -133.116 -102.598 -224.579C-94.8881 -208.851 -152.754 -259.433 -169.291 -251.326C-326.97 -174.028 -357.292 61.1061 -271.954 235.187Z" fill="url(#paint29_linear_635_109)"/>
</g>
</g>
<g filter="url(#filter17_f_635_109)">
<mask id="mask4_635_109" style="mask-type:alpha" maskUnits="userSpaceOnUse" x="-340" y="198" width="438" height="321">
<path opacity="0.8" d="M97.5 379.139L3.71201 518.61L-186.68 460.084L-339.77 198.327L-192.412 216.789L-153.923 212.714L76.8272 343.792L97.5 379.139Z" fill="url(#paint30_linear_635_109)"/>
</mask>
<g mask="url(#mask4_635_109)">
<g opacity="0.8">
<path d="M-316.365 183.066C-311.092 219.285 -337.83 195.433 -317.358 230.437C-307.924 246.567 -186.359 339.67 -174.795 353.245C-113.805 403.98 -39.6709 419.515 21.266 393.546C33.6531 388.297 44.8673 381.302 55.7151 373.335C0.80757 413.746 -84.478 370.795 -137.796 319.316C-213.308 246.504 -252.963 133.507 -210.346 29.0392C-270.794 73.7506 -277.94 214.245 -282.747 191.478L-316.365 183.066Z" fill="#F9CD56"/>
<g filter="url(#filter18_f_635_109)">
<path d="M-301.119 175.431C-295.846 211.65 -322.584 187.798 -302.112 222.802C-292.678 238.932 -171.113 332.035 -159.548 345.61C-98.5593 396.345 -24.4248 411.88 36.5121 385.911C48.8992 380.662 60.1134 373.667 70.9612 365.7C16.0537 406.111 -101.203 361.985 -154.521 310.507C-230.032 237.695 -290.387 149.625 -247.771 45.1577C-308.218 89.869 -262.694 206.61 -267.501 183.843L-301.119 175.431Z" fill="#F9CD56"/>
</g>
<g filter="url(#filter19_f_635_109)">
<path d="M-301.119 175.431C-295.846 211.65 -322.584 187.798 -302.112 222.802C-292.678 238.932 -171.113 332.035 -159.548 345.61C-98.5593 396.345 -24.4248 411.88 36.5121 385.911C48.8992 380.662 60.1134 373.667 70.9612 365.7C16.0537 406.111 -101.203 361.985 -154.521 310.507C-230.032 237.695 -290.387 149.625 -247.771 45.1577C-308.218 89.869 -262.694 206.61 -267.501 183.843L-301.119 175.431Z" fill="#F9CD56"/>
</g>
<g filter="url(#filter20_f_635_109)">
<path d="M-301.119 175.431C-295.846 211.65 -322.584 187.798 -302.112 222.802C-292.678 238.932 -171.113 332.035 -159.548 345.61C-98.5593 396.345 -24.4248 411.88 36.5121 385.911C48.8992 380.662 60.1134 373.667 70.9612 365.7C16.0537 406.111 -101.203 361.985 -154.521 310.507C-230.032 237.695 -290.387 149.625 -247.771 45.1577C-308.218 89.869 -262.694 206.61 -267.501 183.843L-301.119 175.431Z" fill="#F9CD56"/>
</g>
<g filter="url(#filter21_f_635_109)">
<path d="M-301.119 175.431C-295.846 211.65 -322.584 187.798 -302.112 222.802C-292.678 238.932 -171.113 332.035 -159.548 345.61C-98.5593 396.345 -24.4248 411.88 36.5121 385.911C48.8992 380.662 60.1134 373.667 70.9612 365.7C16.0537 406.111 -99.03 378.659 -152.348 327.181C-227.86 254.369 -290.387 149.625 -247.771 45.1577C-308.218 89.869 -262.694 206.61 -267.501 183.843L-301.119 175.431Z" fill="#F9CD56"/>
</g>
<g filter="url(#filter22_f_635_109)">
<path d="M-301.118 175.431C-295.844 211.65 -322.583 187.798 -302.111 222.801C-292.677 238.932 -171.111 332.035 -159.547 345.61C-98.5579 396.345 -24.4234 411.88 36.5134 385.91C48.9006 380.662 65.3193 374.581 76.167 366.615C21.2595 407.026 -96.6865 381.777 -150.004 330.298C-225.516 257.487 -290.386 149.625 -247.769 45.1575C-308.217 89.8689 -262.693 206.61 -267.5 183.843L-301.118 175.431Z" fill="#F9CD56"/>
</g>
<g filter="url(#filter23_f_635_109)">
<path d="M-316.365 183.066C-311.092 219.285 -337.83 195.433 -317.358 230.437C-307.924 246.567 -183.955 333.136 -172.39 346.71C-111.401 397.446 -39.6709 419.515 21.266 393.546C33.6531 388.297 44.8673 381.302 55.7151 373.335C0.80757 413.746 -88.3438 373.056 -141.662 321.577C-217.173 248.765 -277.704 147.977 -235.087 43.5093C-295.535 88.2207 -277.94 214.245 -282.747 191.478L-316.365 183.066Z" fill="#F9CD56"/>
</g>
<g filter="url(#filter24_f_635_109)">
<path d="M-308.504 182.315C-303.231 218.535 -329.969 194.682 -309.497 229.686C-300.063 245.816 -176.093 332.385 -164.529 345.96C-103.54 396.695 -31.8095 418.764 29.1273 392.795C41.5144 387.547 52.7287 380.551 63.5764 372.585C8.6689 412.995 -85.8946 375.47 -139.213 323.991C-214.724 251.18 -275.255 150.392 -232.638 45.9239C-293.086 90.6352 -270.079 213.495 -274.886 190.727L-308.504 182.315Z" fill="#F9CD56"/>
</g>
<g filter="url(#filter25_f_635_109)">
<path d="M-304.982 177.691C-299.709 213.911 -326.448 190.058 -305.975 225.062C-296.541 241.193 -172.572 327.761 -161.008 341.336C-100.019 392.071 -28.288 414.141 32.6488 388.171C45.0359 382.923 56.2501 375.927 67.0979 367.961C12.1904 408.371 -96.8487 378.03 -150.167 326.552C-225.678 253.74 -286.209 152.952 -243.592 48.4842C-304.04 93.1955 -266.558 208.871 -271.364 186.104L-304.982 177.691Z" fill="#F9CD56"/>
</g>
<g filter="url(#filter26_f_635_109)">
<path d="M-304.983 177.691C-299.709 213.91 -326.448 190.058 -305.976 225.062C-296.541 241.192 -180.276 319.331 -168.712 332.906C-107.723 383.641 -16.4034 413.009 44.5334 387.039C56.9205 381.791 56.25 375.927 67.0978 367.961C12.1903 408.371 -78.8938 405.987 -132.212 354.508C-207.723 281.697 -297.215 233.75 -254.599 129.283C-315.046 173.994 -266.558 208.87 -271.365 186.103L-304.983 177.691Z" fill="#F9CD56"/>
</g>
<g filter="url(#filter27_f_635_109)">
<path d="M-304.983 177.691C-299.709 213.91 -326.448 190.058 -305.976 225.062C-296.541 241.192 -162.724 328.938 -151.16 342.513C-90.1711 393.248 -16.4034 413.009 44.5334 387.039C56.9205 381.791 56.25 375.927 67.0978 367.961C12.1903 408.371 -75.8691 390.756 -129.187 339.277C-204.699 266.466 -297.215 233.75 -254.599 129.283C-315.046 173.994 -266.558 208.87 -271.365 186.103L-304.983 177.691Z" fill="#F9CD56"/>
</g>
</g>
</g>
</g>
<g opacity="0.4">
<path d="M-191.009 128.806C-193.03 116.41 -199.376 106.003 -215.623 98.4194C-270.493 72.8846 -335.623 73.9127 -382.046 30.1413C-405.861 7.64604 -417.318 -22.9767 -418.291 -55.4057C-422.632 -208.614 -311.844 -269.025 -264.646 -277.186C-216.286 -285.561 -179.765 -235.503 -160.25 -198.275C-136.188 -152.413 -116.261 -102.011 -75.4159 -68.0762C-32.2848 -32.2503 59.6967 56.5324 89.286 107.05C110.162 142.692 127.494 205.987 105.661 241.071C83.8279 276.156 24.9777 283.338 -15.286 292.539C-55.5498 301.74 -48.6557 468.143 -88.5375 457.177C-142.166 442.431 -163.807 372.524 -175.456 325.214C-187.258 277.248 -192.4 227.904 -192.184 178.524C-192.051 160.262 -188.639 143.197 -191.009 128.806Z" stroke="url(#paint31_linear_635_109)" stroke-width="1.6412" stroke-miterlimit="10"/>
<path d="M-268.557 -286.546C-217.038 -295.482 -178.119 -242.06 -157.294 -202.425C-131.617 -153.593 -110.436 -99.7904 -66.8328 -63.6706C-20.85 -25.5085 71.9416 55.3545 103.466 109.23C125.762 147.252 140.215 211.564 116.913 249.01C96.0874 282.475 42.3276 290.953 4.50028 301.202C-34.4636 311.774 -32.6605 459.284 -72.0821 451.038C-126.622 439.562 -153.975 378.081 -171.573 334.464C-189.263 290.696 -199.546 244.049 -203.691 196.262C-205.216 178.558 -203.581 161.792 -206.793 147.251C-209.454 134.831 -215.81 124.137 -230.61 115.582C-252.932 102.721 -276.157 93.4156 -298.608 83.4688C-317.772 75.0067 -336.38 65.9538 -353.362 53.2335C-361.603 47.075 -369.308 39.7531 -376.747 31.0997C-396.891 7.51907 -407.009 -23.3001 -408.018 -56.8746C-409.403 -106.689 -401.078 -148.495 -386.554 -182.512C-359.403 -246.298 -305.052 -280.241 -268.557 -286.546Z" stroke="url(#paint32_linear_635_109)" stroke-width="1.6412" stroke-miterlimit="10"/>
<path d="M-272.426 -295.973C-217.75 -305.471 -176.389 -248.752 -154.296 -206.643C-127.046 -154.773 -104.528 -97.7046 -58.25 -59.265C-9.41548 -18.7667 84.2537 54.2185 117.756 111.383C141.404 151.745 153.004 217.183 128.316 256.855C108.456 288.769 59.7191 298.5 24.4377 309.772C-13.2682 321.782 -16.5305 450.509 -55.4335 444.739C-110.927 436.6 -143.84 383.452 -167.428 343.595C-190.856 303.932 -206.474 260.143 -214.979 213.948C-218.137 196.913 -218.279 180.445 -222.359 165.644C-225.728 153.159 -232.117 142.069 -245.403 132.584C-265.884 117.967 -286.226 105.683 -305.507 92.7481C-321.836 81.8376 -337.383 70.5717 -351.748 56.2038C-358.534 49.3601 -364.918 41.2691 -371.186 31.9395C-387.719 7.51792 -396.397 -23.8094 -397.526 -58.3945C-399.069 -106.903 -393.592 -149.546 -382.207 -185.89C-362.534 -249.089 -313.965 -288.782 -272.426 -295.973Z" stroke="url(#paint33_linear_635_109)" stroke-width="1.6412" stroke-miterlimit="10"/>
<path d="M-276.292 -305.399C-218.391 -315.418 -174.657 -255.443 -151.186 -210.886C-122.363 -155.978 -98.4827 -95.5342 -49.5132 -54.9519C2.13111 -12.0499 96.6524 52.9481 132.132 113.403C157.132 156.104 165.921 222.599 139.763 264.634C120.911 294.928 77.1808 306.09 44.3779 318.343C7.99735 331.832 -0.465297 441.692 -38.8241 438.507C-95.3136 433.773 -133.678 388.933 -163.391 352.753C-192.597 317.262 -213.508 276.263 -226.441 231.618C-231.19 215.184 -233.151 199.082 -238.032 184.064C-242.108 171.512 -248.465 160.068 -260.278 149.722C-278.917 133.349 -296.376 118.086 -312.555 102.121C-325.983 88.8039 -338.577 75.3506 -350.283 59.2675C-355.722 51.7642 -360.65 42.9879 -365.884 32.8982C-378.847 7.70318 -386.086 -24.1324 -387.292 -59.7955C-388.816 -106.982 -386.095 -150.309 -378.076 -189.217C-365.056 -251.501 -322.876 -297.323 -276.292 -305.399Z" stroke="url(#paint34_linear_635_109)" stroke-width="1.6412" stroke-miterlimit="10"/>
<path d="M-280.16 -314.826C-219.101 -325.407 -172.926 -262.135 -148.187 -215.103C-117.682 -157.183 -92.5739 -93.4484 -40.9296 -50.5463C13.5665 -5.30809 108.965 51.8121 146.313 115.582C172.733 160.664 178.601 228.244 151.083 272.614C133.239 301.289 94.5402 313.991 64.1648 327.006C29.1351 342.085 15.5396 433.12 -22.4356 432.326C-80.0048 431.132 -123.626 394.44 -159.506 362.003C-194.273 330.633 -220.586 292.45 -237.88 249.397C-244.262 233.632 -247.999 217.828 -253.681 202.592C-258.397 190.017 -264.788 178.177 -275.154 166.859C-291.936 148.554 -306.502 130.597 -319.537 111.535C-330.214 95.9046 -339.772 80.129 -348.643 62.3472C-352.736 54.1842 -356.276 44.6809 -360.298 33.8475C-369.842 7.97196 -375.447 -24.5322 -376.774 -61.206C-378.346 -107.112 -378.043 -150.915 -373.592 -192.511C-367.133 -253.729 -331.897 -305.839 -280.16 -314.826Z" stroke="url(#paint35_linear_635_109)" stroke-width="1.6412" stroke-miterlimit="10"/>
<path d="M-284.027 -324.254C-219.81 -335.397 -171.195 -268.827 -145.187 -219.321C-113.11 -158.363 -86.706 -91.2953 -32.3704 -46.2505C24.9774 1.32394 121.228 50.4569 160.579 117.626C188.351 165.047 191.408 233.685 162.421 280.417C145.584 307.473 111.917 321.715 84.0366 335.533C50.3158 352.269 31.52 424.437 -5.85253 425.984C-64.476 428.44 -113.296 399.65 -155.428 371.092C-195.712 343.777 -227.47 308.476 -249.259 266.931C-257.164 251.809 -262.787 236.329 -269.379 220.902C-274.736 208.302 -281.12 195.999 -290.056 183.886C-304.912 163.69 -316.829 142.983 -326.543 120.839C-334.403 102.938 -341.009 84.9745 -347.137 65.3426C-349.925 56.5875 -352.186 46.3825 -354.955 34.738C-361.231 8.27486 -365.027 -24.8815 -366.457 -62.7428C-368.077 -107.368 -369.797 -151.681 -369.336 -196.041C-368.678 -255.908 -340.808 -314.38 -284.027 -324.254Z" stroke="url(#paint36_linear_635_109)" stroke-width="1.6412" stroke-miterlimit="10"/>
<path d="M-287.87 -333.571C-220.495 -345.276 -169.506 -275.451 -142.189 -223.538C-108.538 -159.542 -80.7972 -89.2088 -23.7868 -41.8443C36.3706 8.13388 133.474 49.2796 174.802 119.738C203.927 169.499 204.197 239.305 173.757 288.221C157.886 313.725 129.36 329.482 103.907 344.062C71.5629 362.497 47.5247 415.865 10.6874 419.71C-48.9649 425.925 -103.077 404.887 -151.46 380.207C-197.287 356.837 -234.532 324.487 -260.723 284.601C-270.219 270.081 -277.619 254.899 -285.054 239.321C-291.118 226.656 -297.427 213.931 -304.932 201.024C-317.821 178.87 -327.107 155.588 -333.592 130.212C-338.703 109.997 -342.381 89.7371 -345.674 68.4066C-347.116 58.9918 -348.097 48.0851 -349.545 35.6715C-352.731 8.60429 -354.566 -25.2971 -356.183 -64.211C-357.851 -107.556 -361.266 -152.455 -365.097 -199.392C-369.853 -258.23 -349.72 -322.921 -287.87 -333.571Z" stroke="url(#paint37_linear_635_109)" stroke-width="1.6412" stroke-miterlimit="10"/>
<path d="M-291.739 -342.998C-221.139 -355.223 -167.751 -282.033 -139.165 -227.647C-103.942 -160.613 -74.9061 -86.946 -15.137 -37.3967C47.8722 14.9177 145.853 48.1857 189.117 122.002C219.703 174.076 217.053 244.966 185.143 296.243C170.28 320.128 146.946 337.618 123.786 352.876C92.9108 373.162 63.6048 407.621 27.2351 413.723C-33.311 423.78 -92.8078 410.342 -147.374 389.583C-198.703 370.09 -241.367 340.732 -272.028 302.464C-283.115 288.545 -292.292 273.662 -300.569 257.934C-307.232 245.177 -313.533 231.989 -319.675 218.245C-330.462 194.217 -337.344 168.126 -340.44 139.71C-342.91 117.207 -343.594 94.6924 -343.942 71.6377C-344.08 61.6307 -343.85 49.9804 -343.934 36.7303C-344.098 9.01696 -343.904 -25.5876 -345.641 -65.512C-347.492 -107.66 -352.231 -153.29 -360.725 -202.661C-370.769 -260.672 -358.634 -331.462 -291.739 -342.998Z" stroke="url(#paint38_linear_635_109)" stroke-width="1.6412" stroke-miterlimit="10"/>
<path d="M-342.546 74.6589C-336.965 20.5685 -322.843 -76.8779 -356.418 -205.972C-371.406 -263.408 -367.587 -339.936 -295.606 -352.425C-221.849 -365.212 -166.02 -288.725 -136.124 -231.932C-99.2862 -161.928 -68.9547 -84.9277 -6.51073 -33.0587C59.3082 21.6594 158.141 46.9401 203.382 124.046C235.321 178.459 229.817 250.475 196.48 304.046C163.142 357.618 105.207 393.261 43.7502 407.339C-17.7737 421.374 -82.5967 415.292 -143.431 398.589C-266.903 364.621 -348.547 280.585 -347.582 148.931C-347.411 124.14 -345.101 99.3703 -342.546 74.6589Z" stroke="url(#paint39_linear_635_109)" stroke-width="1.6412" stroke-miterlimit="10"/>
</g>
</g>
</g>
<defs>
<filter id="filter0_f_635_109" x="1475.27" y="247.409" width="577.801" height="748.741" filterUnits="userSpaceOnUse" color-interpolation-filters="sRGB">
<feFlood flood-opacity="0" result="BackgroundImageFix"/>
<feBlend mode="normal" in="SourceGraphic" in2="BackgroundImageFix" result="shape"/>
<feGaussianBlur stdDeviation="7.26216" result="effect1_foregroundBlur_635_109"/>
</filter>
<filter id="filter1_f_635_109" x="1431.96" y="211.707" width="642.072" height="813.14" filterUnits="userSpaceOnUse" color-interpolation-filters="sRGB">
<feFlood flood-opacity="0" result="BackgroundImageFix"/>
<feBlend mode="normal" in="SourceGraphic" in2="BackgroundImageFix" result="shape"/>
<feGaussianBlur stdDeviation="21.7865" result="effect1_foregroundBlur_635_109"/>
</filter>
<filter id="filter2_f_635_109" x="1412.59" y="192.341" width="680.803" height="851.871" filterUnits="userSpaceOnUse" color-interpolation-filters="sRGB">
<feFlood flood-opacity="0" result="BackgroundImageFix"/>
<feBlend mode="normal" in="SourceGraphic" in2="BackgroundImageFix" result="shape"/>
<feGaussianBlur stdDeviation="31.4693" result="effect1_foregroundBlur_635_109"/>
</filter>
<filter id="filter3_f_635_109" x="1412.59" y="192.341" width="680.803" height="851.871" filterUnits="userSpaceOnUse" color-interpolation-filters="sRGB">
<feFlood flood-opacity="0" result="BackgroundImageFix"/>
<feBlend mode="normal" in="SourceGraphic" in2="BackgroundImageFix" result="shape"/>
<feGaussianBlur stdDeviation="31.4693" result="effect1_foregroundBlur_635_109"/>
</filter>
<filter id="filter4_f_635_109" x="1325.45" y="105.195" width="828.107" height="1025.6" filterUnits="userSpaceOnUse" color-interpolation-filters="sRGB">
<feFlood flood-opacity="0" result="BackgroundImageFix"/>
<feBlend mode="normal" in="SourceGraphic" in2="BackgroundImageFix" result="shape"/>
<feGaussianBlur stdDeviation="75.0423" result="effect1_foregroundBlur_635_109"/>
</filter>
<filter id="filter5_f_635_109" x="1369.57" y="144.209" width="723.088" height="959.897" filterUnits="userSpaceOnUse" color-interpolation-filters="sRGB">
<feFlood flood-opacity="0" result="BackgroundImageFix"/>
<feBlend mode="normal" in="SourceGraphic" in2="BackgroundImageFix" result="shape"/>
<feGaussianBlur stdDeviation="45.9937" result="effect1_foregroundBlur_635_109"/>
</filter>
<filter id="filter6_f_635_109" x="1263.05" y="37.6971" width="936.111" height="1172.92" filterUnits="userSpaceOnUse" color-interpolation-filters="sRGB">
<feFlood flood-opacity="0" result="BackgroundImageFix"/>
<feBlend mode="normal" in="SourceGraphic" in2="BackgroundImageFix" result="shape"/>
<feGaussianBlur stdDeviation="99.2495" result="effect1_foregroundBlur_635_109"/>
</filter>
<filter id="filter7_f_635_109" x="1166.23" y="-59.1317" width="1129.77" height="1366.58" filterUnits="userSpaceOnUse" color-interpolation-filters="sRGB">
<feFlood flood-opacity="0" result="BackgroundImageFix"/>
<feBlend mode="normal" in="SourceGraphic" in2="BackgroundImageFix" result="shape"/>
<feGaussianBlur stdDeviation="147.664" result="effect1_foregroundBlur_635_109"/>
</filter>
<filter id="filter9_f_635_109" x="-368.847" y="-242.467" width="546.494" height="707.682" filterUnits="userSpaceOnUse" color-interpolation-filters="sRGB">
<feFlood flood-opacity="0" result="BackgroundImageFix"/>
<feBlend mode="normal" in="SourceGraphic" in2="BackgroundImageFix" result="shape"/>
<feGaussianBlur stdDeviation="7.26216" result="effect1_foregroundBlur_635_109"/>
</filter>
<filter id="filter10_f_635_109" x="-390.272" y="-277.79" width="610.413" height="771.722" filterUnits="userSpaceOnUse" color-interpolation-filters="sRGB">
<feFlood flood-opacity="0" result="BackgroundImageFix"/>
<feBlend mode="normal" in="SourceGraphic" in2="BackgroundImageFix" result="shape"/>
<feGaussianBlur stdDeviation="21.7865" result="effect1_foregroundBlur_635_109"/>
</filter>
<filter id="filter11_f_635_109" x="-409.638" y="-297.156" width="649.145" height="810.453" filterUnits="userSpaceOnUse" color-interpolation-filters="sRGB">
<feFlood flood-opacity="0" result="BackgroundImageFix"/>
<feBlend mode="normal" in="SourceGraphic" in2="BackgroundImageFix" result="shape"/>
<feGaussianBlur stdDeviation="31.4693" result="effect1_foregroundBlur_635_109"/>
</filter>
<filter id="filter12_f_635_109" x="-409.638" y="-297.156" width="649.145" height="810.453" filterUnits="userSpaceOnUse" color-interpolation-filters="sRGB">
<feFlood flood-opacity="0" result="BackgroundImageFix"/>
<feBlend mode="normal" in="SourceGraphic" in2="BackgroundImageFix" result="shape"/>
<feGaussianBlur stdDeviation="31.4693" result="effect1_foregroundBlur_635_109"/>
</filter>
<filter id="filter13_f_635_109" x="-471.337" y="-384.302" width="797.989" height="984.217" filterUnits="userSpaceOnUse" color-interpolation-filters="sRGB">
<feFlood flood-opacity="0" result="BackgroundImageFix"/>
<feBlend mode="normal" in="SourceGraphic" in2="BackgroundImageFix" result="shape"/>
<feGaussianBlur stdDeviation="75.0423" result="effect1_foregroundBlur_635_109"/>
</filter>
<filter id="filter14_f_635_109" x="-410.595" y="-344.199" width="692.332" height="915.631" filterUnits="userSpaceOnUse" color-interpolation-filters="sRGB">
<feFlood flood-opacity="0" result="BackgroundImageFix"/>
<feBlend mode="normal" in="SourceGraphic" in2="BackgroundImageFix" result="shape"/>
<feGaussianBlur stdDeviation="45.9937" result="effect1_foregroundBlur_635_109"/>
</filter>
<filter id="filter15_f_635_109" x="-517.106" y="-450.711" width="905.355" height="1128.65" filterUnits="userSpaceOnUse" color-interpolation-filters="sRGB">
<feFlood flood-opacity="0" result="BackgroundImageFix"/>
<feBlend mode="normal" in="SourceGraphic" in2="BackgroundImageFix" result="shape"/>
<feGaussianBlur stdDeviation="99.2495" result="effect1_foregroundBlur_635_109"/>
</filter>
<filter id="filter16_f_635_109" x="-613.935" y="-547.54" width="1099.01" height="1322.31" filterUnits="userSpaceOnUse" color-interpolation-filters="sRGB">
<feFlood flood-opacity="0" result="BackgroundImageFix"/>
<feBlend mode="normal" in="SourceGraphic" in2="BackgroundImageFix" result="shape"/>
<feGaussianBlur stdDeviation="147.664" result="effect1_foregroundBlur_635_109"/>
</filter>
<filter id="filter17_f_635_109" x="-331.14" y="192.379" width="413.256" height="219.502" filterUnits="userSpaceOnUse" color-interpolation-filters="sRGB">
<feFlood flood-opacity="0" result="BackgroundImageFix"/>
<feBlend mode="normal" in="SourceGraphic" in2="BackgroundImageFix" result="shape"/>
<feGaussianBlur stdDeviation="2.97408" result="effect1_foregroundBlur_635_109"/>
</filter>
<filter id="filter18_f_635_109" x="-315.893" y="39.2096" width="392.803" height="365.036" filterUnits="userSpaceOnUse" color-interpolation-filters="sRGB">
<feFlood flood-opacity="0" result="BackgroundImageFix"/>
<feBlend mode="normal" in="SourceGraphic" in2="BackgroundImageFix" result="shape"/>
<feGaussianBlur stdDeviation="2.97408" result="effect1_foregroundBlur_635_109"/>
</filter>
<filter id="filter19_f_635_109" x="-372.996" y="-17.8928" width="507.007" height="479.241" filterUnits="userSpaceOnUse" color-interpolation-filters="sRGB">
<feFlood flood-opacity="0" result="BackgroundImageFix"/>
<feBlend mode="normal" in="SourceGraphic" in2="BackgroundImageFix" result="shape"/>
<feGaussianBlur stdDeviation="31.5253" result="effect1_foregroundBlur_635_109"/>
</filter>
<filter id="filter20_f_635_109" x="-344.445" y="10.6584" width="449.905" height="422.139" filterUnits="userSpaceOnUse" color-interpolation-filters="sRGB">
<feFlood flood-opacity="0" result="BackgroundImageFix"/>
<feBlend mode="normal" in="SourceGraphic" in2="BackgroundImageFix" result="shape"/>
<feGaussianBlur stdDeviation="17.2497" result="effect1_foregroundBlur_635_109"/>
</filter>
<filter id="filter21_f_635_109" x="-344.445" y="10.6584" width="449.905" height="422.139" filterUnits="userSpaceOnUse" color-interpolation-filters="sRGB">
<feFlood flood-opacity="0" result="BackgroundImageFix"/>
<feBlend mode="normal" in="SourceGraphic" in2="BackgroundImageFix" result="shape"/>
<feGaussianBlur stdDeviation="17.2497" result="effect1_foregroundBlur_635_109"/>
</filter>
<filter id="filter22_f_635_109" x="-344.443" y="10.6581" width="455.11" height="422.139" filterUnits="userSpaceOnUse" color-interpolation-filters="sRGB">
<feFlood flood-opacity="0" result="BackgroundImageFix"/>
<feBlend mode="normal" in="SourceGraphic" in2="BackgroundImageFix" result="shape"/>
<feGaussianBlur stdDeviation="17.2497" result="effect1_foregroundBlur_635_109"/>
</filter>
<filter id="filter23_f_635_109" x="-340.657" y="28.0441" width="411.837" height="391.914" filterUnits="userSpaceOnUse" color-interpolation-filters="sRGB">
<feFlood flood-opacity="0" result="BackgroundImageFix"/>
<feBlend mode="normal" in="SourceGraphic" in2="BackgroundImageFix" result="shape"/>
<feGaussianBlur stdDeviation="7.73261" result="effect1_foregroundBlur_635_109"/>
</filter>
<filter id="filter24_f_635_109" x="-335.175" y="28.0793" width="416.595" height="393.507" filterUnits="userSpaceOnUse" color-interpolation-filters="sRGB">
<feFlood flood-opacity="0" result="BackgroundImageFix"/>
<feBlend mode="normal" in="SourceGraphic" in2="BackgroundImageFix" result="shape"/>
<feGaussianBlur stdDeviation="8.92225" result="effect1_foregroundBlur_635_109"/>
</filter>
<filter id="filter25_f_635_109" x="-323.326" y="38.9671" width="399.94" height="369.668" filterUnits="userSpaceOnUse" color-interpolation-filters="sRGB">
<feFlood flood-opacity="0" result="BackgroundImageFix"/>
<feBlend mode="normal" in="SourceGraphic" in2="BackgroundImageFix" result="shape"/>
<feGaussianBlur stdDeviation="4.75853" result="effect1_foregroundBlur_635_109"/>
</filter>
<filter id="filter26_f_635_109" x="-342.36" y="100.731" width="438.009" height="324.494" filterUnits="userSpaceOnUse" color-interpolation-filters="sRGB">
<feFlood flood-opacity="0" result="BackgroundImageFix"/>
<feBlend mode="normal" in="SourceGraphic" in2="BackgroundImageFix" result="shape"/>
<feGaussianBlur stdDeviation="14.2756" result="effect1_foregroundBlur_635_109"/>
</filter>
<filter id="filter27_f_635_109" x="-342.36" y="100.731" width="438.009" height="326.284" filterUnits="userSpaceOnUse" color-interpolation-filters="sRGB">
<feFlood flood-opacity="0" result="BackgroundImageFix"/>
<feBlend mode="normal" in="SourceGraphic" in2="BackgroundImageFix" result="shape"/>
<feGaussianBlur stdDeviation="14.2756" result="effect1_foregroundBlur_635_109"/>
</filter>
<linearGradient id="paint0_linear_635_109" x1="2031.61" y1="12.4248" x2="2031.61" y2="973.075" gradientUnits="userSpaceOnUse">
<stop stop-color="#C4C4C4" stop-opacity="0"/>
<stop offset="0.380208" stop-color="#C4C4C4"/>
<stop offset="0.507937" stop-color="#C4C4C4"/>
<stop offset="1" stop-color="#C4C4C4" stop-opacity="0"/>
</linearGradient>
<linearGradient id="paint1_linear_635_109" x1="1992.37" y1="343.99" x2="1664.61" y2="1012.58" gradientUnits="userSpaceOnUse">
<stop stop-color="#F9CD56"/>
<stop offset="1" stop-color="#F9CD56"/>
</linearGradient>
<linearGradient id="paint2_linear_635_109" x1="1986.64" y1="341.182" x2="1658.88" y2="1009.77" gradientUnits="userSpaceOnUse">
<stop stop-color="#F9CD56"/>
<stop offset="1" stop-color="#F9CD56"/>
</linearGradient>
<linearGradient id="paint3_linear_635_109" x1="1975.91" y1="336.809" x2="1645.7" y2="1010.41" gradientUnits="userSpaceOnUse">
<stop stop-color="#F9CD56"/>
<stop offset="1" stop-color="#F9CD56"/>
</linearGradient>
<linearGradient id="paint4_linear_635_109" x1="1975.91" y1="336.809" x2="1645.7" y2="1010.41" gradientUnits="userSpaceOnUse">
<stop stop-color="#F9CD56"/>
<stop offset="1" stop-color="#F9CD56"/>
</linearGradient>
<linearGradient id="paint5_linear_635_109" x1="1975.91" y1="336.809" x2="1645.7" y2="1010.41" gradientUnits="userSpaceOnUse">
<stop stop-color="#F9CD56"/>
<stop offset="1" stop-color="#F9CD56"/>
</linearGradient>
<linearGradient id="paint6_linear_635_109" x1="1960.16" y1="329.089" x2="1629.95" y2="1002.69" gradientUnits="userSpaceOnUse">
<stop stop-color="#F9CD56"/>
<stop offset="1" stop-color="#F9CD56"/>
</linearGradient>
<linearGradient id="paint7_linear_635_109" x1="1965.26" y1="297.406" x2="1608.73" y2="1024.69" gradientUnits="userSpaceOnUse">
<stop stop-color="#F9CD56"/>
<stop offset="1" stop-color="#F9CD56"/>
</linearGradient>
<linearGradient id="paint8_linear_635_109" x1="1965.26" y1="297.406" x2="1608.73" y2="1024.69" gradientUnits="userSpaceOnUse">
<stop stop-color="#F9CD56"/>
<stop offset="1" stop-color="#F9CD56"/>
</linearGradient>
<linearGradient id="paint9_linear_635_109" x1="1965.26" y1="297.406" x2="1608.73" y2="1024.69" gradientUnits="userSpaceOnUse">
<stop stop-color="#F9CD56"/>
<stop offset="1" stop-color="#F9CD56"/>
</linearGradient>
<linearGradient id="paint10_linear_635_109" x1="1892.43" y1="768.607" x2="1584.93" y2="835.129" gradientUnits="userSpaceOnUse">
<stop stop-color="#C4C4C4" stop-opacity="0"/>
<stop offset="0.565737" stop-color="#C4C4C4"/>
<stop offset="1" stop-color="#C4C4C4" stop-opacity="0"/>
</linearGradient>
<linearGradient id="paint11_linear_635_109" x1="2138.53" y1="411.391" x2="1558.74" y2="772.192" gradientUnits="userSpaceOnUse">
<stop stop-color="#F2B000"/>
<stop offset="0.989583" stop-color="#F9CD56"/>
</linearGradient>
<linearGradient id="paint12_linear_635_109" x1="2133.34" y1="402.895" x2="1541.1" y2="771.444" gradientUnits="userSpaceOnUse">
<stop stop-color="#F2B000"/>
<stop offset="0.989583" stop-color="#F9CD56"/>
</linearGradient>
<linearGradient id="paint13_linear_635_109" x1="2129.89" y1="393.771" x2="1523.59" y2="771.066" gradientUnits="userSpaceOnUse">
<stop stop-color="#F2B000"/>
<stop offset="0.989583" stop-color="#F9CD56"/>
</linearGradient>
<linearGradient id="paint14_linear_635_109" x1="2128.32" y1="384.564" x2="1506.58" y2="771.475" gradientUnits="userSpaceOnUse">
<stop stop-color="#F2B000"/>
<stop offset="0.989583" stop-color="#F9CD56"/>
</linearGradient>
<linearGradient id="paint15_linear_635_109" x1="2128.8" y1="375.911" x2="1490.38" y2="773.197" gradientUnits="userSpaceOnUse">
<stop stop-color="#F2B000"/>
<stop offset="0.989583" stop-color="#F9CD56"/>
</linearGradient>
<linearGradient id="paint16_linear_635_109" x1="2131.6" y1="368.655" x2="1475.53" y2="776.928" gradientUnits="userSpaceOnUse">
<stop stop-color="#F2B000"/>
<stop offset="0.989583" stop-color="#F9CD56"/>
</linearGradient>
<linearGradient id="paint17_linear_635_109" x1="2137.44" y1="364.572" x2="1462.94" y2="784.308" gradientUnits="userSpaceOnUse">
<stop stop-color="#F2B000"/>
<stop offset="0.989583" stop-color="#F9CD56"/>
</linearGradient>
<linearGradient id="paint18_linear_635_109" x1="2145.17" y1="362.274" x2="1451.55" y2="793.91" gradientUnits="userSpaceOnUse">
<stop stop-color="#F2B000"/>
<stop offset="0.989583" stop-color="#F9CD56"/>
</linearGradient>
<linearGradient id="paint19_linear_635_109" x1="2154.15" y1="361.111" x2="1441.16" y2="804.806" gradientUnits="userSpaceOnUse">
<stop stop-color="#F2B000"/>
<stop offset="0.989583" stop-color="#F9CD56"/>
</linearGradient>
<linearGradient id="paint20_linear_635_109" x1="473.25" y1="0" x2="473.25" y2="905.845" gradientUnits="userSpaceOnUse">
<stop stop-color="#C4C4C4" stop-opacity="0"/>
<stop offset="0.380208" stop-color="#C4C4C4"/>
<stop offset="0.507937" stop-color="#C4C4C4"/>
<stop offset="1" stop-color="#C4C4C4" stop-opacity="0"/>
</linearGradient>
<linearGradient id="paint21_linear_635_109" x1="-310.78" y1="-150.568" x2="-1.72125" y2="479.876" gradientUnits="userSpaceOnUse">
<stop stop-color="#F9CD56"/>
<stop offset="1" stop-color="#F9CD56"/>
</linearGradient>
<linearGradient id="paint22_linear_635_109" x1="-305.38" y1="-153.215" x2="3.67874" y2="477.229" gradientUnits="userSpaceOnUse">
<stop stop-color="#F9CD56"/>
<stop offset="1" stop-color="#F9CD56"/>
</linearGradient>
<linearGradient id="paint23_linear_635_109" x1="-295.263" y1="-157.339" x2="16.1114" y2="477.831" gradientUnits="userSpaceOnUse">
<stop stop-color="#F9CD56"/>
<stop offset="1" stop-color="#F9CD56"/>
</linearGradient>
<linearGradient id="paint24_linear_635_109" x1="-295.263" y1="-157.339" x2="16.1114" y2="477.831" gradientUnits="userSpaceOnUse">
<stop stop-color="#F9CD56"/>
<stop offset="1" stop-color="#F9CD56"/>
</linearGradient>
<linearGradient id="paint25_linear_635_109" x1="-295.263" y1="-157.339" x2="16.1114" y2="477.831" gradientUnits="userSpaceOnUse">
<stop stop-color="#F9CD56"/>
<stop offset="1" stop-color="#F9CD56"/>
</linearGradient>
<linearGradient id="paint26_linear_635_109" x1="-280.414" y1="-164.619" x2="30.9613" y2="470.551" gradientUnits="userSpaceOnUse">
<stop stop-color="#F9CD56"/>
<stop offset="1" stop-color="#F9CD56"/>
</linearGradient>
<linearGradient id="paint27_linear_635_109" x1="-285.222" y1="-194.494" x2="50.9705" y2="491.3" gradientUnits="userSpaceOnUse">
<stop stop-color="#F9CD56"/>
<stop offset="1" stop-color="#F9CD56"/>
</linearGradient>
<linearGradient id="paint28_linear_635_109" x1="-285.222" y1="-194.494" x2="50.9705" y2="491.3" gradientUnits="userSpaceOnUse">
<stop stop-color="#F9CD56"/>
<stop offset="1" stop-color="#F9CD56"/>
</linearGradient>
<linearGradient id="paint29_linear_635_109" x1="-285.222" y1="-194.494" x2="50.9705" y2="491.3" gradientUnits="userSpaceOnUse">
<stop stop-color="#F9CD56"/>
<stop offset="1" stop-color="#F9CD56"/>
</linearGradient>
<linearGradient id="paint30_linear_635_109" x1="-216.552" y1="249.825" x2="73.4082" y2="312.552" gradientUnits="userSpaceOnUse">
<stop stop-color="#C4C4C4" stop-opacity="0"/>
<stop offset="0.565737" stop-color="#C4C4C4"/>
<stop offset="1" stop-color="#C4C4C4" stop-opacity="0"/>
</linearGradient>
<linearGradient id="paint31_linear_635_109" x1="-448.601" y1="-87.0122" x2="98.1102" y2="253.205" gradientUnits="userSpaceOnUse">
<stop stop-color="#F2B000"/>
<stop offset="0.989583" stop-color="#F9CD56"/>
</linearGradient>
<linearGradient id="paint32_linear_635_109" x1="-443.71" y1="-95.0238" x2="114.741" y2="252.499" gradientUnits="userSpaceOnUse">
<stop stop-color="#F2B000"/>
<stop offset="0.989583" stop-color="#F9CD56"/>
</linearGradient>
<linearGradient id="paint33_linear_635_109" x1="-440.455" y1="-103.627" x2="131.248" y2="252.143" gradientUnits="userSpaceOnUse">
<stop stop-color="#F2B000"/>
<stop offset="0.989583" stop-color="#F9CD56"/>
</linearGradient>
<linearGradient id="paint34_linear_635_109" x1="-438.978" y1="-112.309" x2="147.296" y2="252.529" gradientUnits="userSpaceOnUse">
<stop stop-color="#F2B000"/>
<stop offset="0.989583" stop-color="#F9CD56"/>
</linearGradient>
<linearGradient id="paint35_linear_635_109" x1="-439.425" y1="-120.468" x2="162.571" y2="254.153" gradientUnits="userSpaceOnUse">
<stop stop-color="#F2B000"/>
<stop offset="0.989583" stop-color="#F9CD56"/>
</linearGradient>
<linearGradient id="paint36_linear_635_109" x1="-442.068" y1="-127.31" x2="176.576" y2="257.671" gradientUnits="userSpaceOnUse">
<stop stop-color="#F2B000"/>
<stop offset="0.989583" stop-color="#F9CD56"/>
</linearGradient>
<linearGradient id="paint37_linear_635_109" x1="-447.576" y1="-131.161" x2="188.438" y2="264.63" gradientUnits="userSpaceOnUse">
<stop stop-color="#F2B000"/>
<stop offset="0.989583" stop-color="#F9CD56"/>
</linearGradient>
<linearGradient id="paint38_linear_635_109" x1="-454.864" y1="-133.327" x2="199.181" y2="273.684" gradientUnits="userSpaceOnUse">
<stop stop-color="#F2B000"/>
<stop offset="0.989583" stop-color="#F9CD56"/>
</linearGradient>
<linearGradient id="paint39_linear_635_109" x1="-463.337" y1="-134.424" x2="208.98" y2="283.958" gradientUnits="userSpaceOnUse">
<stop stop-color="#F2B000"/>
<stop offset="0.989583" stop-color="#F9CD56"/>
</linearGradient>
</defs>
</svg>
