<svg width="64" height="64" viewBox="0 0 64 64" fill="none" xmlns="http://www.w3.org/2000/svg">
<path d="M25.332 36.6668C25.332 39.2535 27.332 41.3335 29.7854 41.3335H34.7987C36.932 41.3335 38.6654 39.5202 38.6654 37.2535C38.6654 34.8268 37.5987 33.9468 36.0254 33.3868L27.9987 30.5868C26.4254 30.0268 25.3587 29.1735 25.3587 26.7202C25.3587 24.4801 27.092 22.6401 29.2254 22.6401H34.2387C36.692 22.6401 38.692 24.7201 38.692 27.3068" stroke="#F9CD56" stroke-width="2.8" stroke-linecap="round" stroke-linejoin="round"/>
<path d="M32 20V44" stroke="#F9CD56" stroke-width="2.8" stroke-linecap="round" stroke-linejoin="round"/>
<path d="M58.6654 32.0002C58.6654 46.7202 46.7187 58.6668 31.9987 58.6668C17.2787 58.6668 5.33203 46.7202 5.33203 32.0002C5.33203 17.2802 17.2787 5.3335 31.9987 5.3335" stroke="#F9CD56" stroke-width="2.8" stroke-linecap="round" stroke-linejoin="round"/>
<path d="M58.6667 16.0002V5.3335H48" stroke="#F9CD56" stroke-width="2.8" stroke-linecap="round" stroke-linejoin="round"/>
<path d="M45.332 18.6668L58.6654 5.3335" stroke="#F9CD56" stroke-width="2.8" stroke-linecap="round" stroke-linejoin="round"/>
</svg>
