<svg width="32" height="32" viewBox="0 0 32 32" fill="none" xmlns="http://www.w3.org/2000/svg">
<path d="M8.54794 16.2513C8.07931 16.2513 7.85606 16.4745 7.8115 16.8316C7.67756 17.9029 7.43206 19.5768 4.77619 19.5768C2.61125 19.5768 1.473 18.5056 1.473 16.1621V9.24337C1.473 6.92225 2.61119 5.851 4.68681 5.851C7.34275 5.851 7.76675 7.59181 7.81138 8.55156C7.83369 8.86406 8.0345 9.1095 8.54781 9.1095C9.06119 9.1095 9.28431 8.95331 9.28431 8.21681C9.28431 6.20812 7.61044 4.48962 4.68675 4.48962C2.14256 4.48962 0 5.78406 0 9.24337V16.1621C0 19.6437 2.09794 20.9382 4.61994 20.9382C7.56594 20.9382 9.28444 19.1974 9.28444 17.1664C9.28444 16.4299 9.06125 16.2513 8.54794 16.2513Z" fill="#F95656"/>
<path d="M16.3141 4.48962C13.7029 4.48962 11.6719 5.78412 11.6719 9.24344V16.1621C11.6719 19.6438 13.7029 20.9383 16.3141 20.9383C18.9253 20.9383 20.9563 19.6438 20.9563 16.1621V9.24337C20.9563 5.78406 18.9253 4.48962 16.3141 4.48962ZM19.4833 16.1621C19.4833 18.5055 18.3004 19.5767 16.3141 19.5767C14.3278 19.5767 13.1449 18.5055 13.1449 16.1621V9.24337C13.1449 6.92225 14.3278 5.851 16.3141 5.851C18.3004 5.851 19.4833 6.92225 19.4833 9.24337V16.1621Z" fill="#F95656"/>
<path d="M31.4634 26.149H24.3439V24.7652C24.3439 21.7969 31.8428 20.2792 31.8428 15.4808C31.8428 13.0704 29.968 11.1957 27.4014 11.1957C25.0357 11.1957 23.2055 12.758 23.2056 14.9006C23.2056 15.5701 23.4288 15.8156 23.8752 15.8156C24.3885 15.8156 24.6563 15.5031 24.6563 15.213C24.6563 13.4498 25.8168 12.5794 27.3568 12.5794C29.4101 12.5794 30.3698 14.1194 30.3698 15.5254C30.3698 19.4312 22.8262 21.0604 22.8262 24.7652V26.9302C22.8262 27.2873 23.2279 27.5104 23.518 27.5104H31.4634C31.7535 27.5104 31.999 27.1756 31.999 26.8186C31.999 26.4615 31.7535 26.149 31.4634 26.149Z" fill="#F95656"/>
</svg>
