<svg width="21" height="16" viewBox="0 0 21 16" fill="none" xmlns="http://www.w3.org/2000/svg">
<path fill-rule="evenodd" clip-rule="evenodd" d="M13.5271 0C16.0313 0 18.6075 2.71113 19.6519 6.44588C20.1882 8.36498 20.2012 10.457 19.6865 12.1857C19.1163 14.1018 17.9426 15.3978 16.3816 15.8341C15.9887 15.9441 15.584 16 15.1788 16C13.1892 16 11.4251 14.6603 10.8887 12.7425C10.227 10.3758 11.6137 7.91157 13.9809 7.24925C15.0302 6.95699 16.1889 7.0682 17.1602 7.54887C17.1289 7.41796 17.0965 7.29242 17.0623 7.16967C16.197 4.07615 14.4997 2.68427 13.571 2.68427L13.53 2.68507C13.3516 2.69323 13.1799 2.57286 13.1301 2.3948L12.6147 0.550901C12.5842 0.44267 12.6011 0.32688 12.661 0.231581C12.7211 0.13688 12.8182 0.0716231 12.9292 0.0521257C13.125 0.0175079 13.3259 0 13.5271 0ZM2.60574 0.052094C2.80131 0.0174762 3.00245 0.000366211 3.2032 0.000366211C5.70803 0.000366211 8.28389 2.7111 9.32879 6.44545C9.86537 8.36475 9.87811 10.4569 9.36361 12.1856C8.79321 14.1018 7.61958 15.3977 6.05879 15.834C5.66565 15.9441 5.26098 16 4.85571 16C2.86617 16 1.10204 14.6602 0.565664 12.7425C-0.0964554 10.3758 1.29065 7.91153 3.65741 7.24922C4.70669 6.95696 5.865 7.06817 6.8367 7.54884C6.80566 7.41873 6.77323 7.29319 6.73881 7.16964C5.87356 4.07612 4.17608 2.68424 3.24737 2.68424L3.20678 2.68504C3.02513 2.6932 2.85662 2.57283 2.80688 2.39477L2.29119 0.550869C2.26095 0.442639 2.27786 0.326848 2.33775 0.23155C2.39763 0.136848 2.49492 0.0711935 2.60574 0.052094Z" fill="#F9CD56"/>
</svg>
