<svg width="64" height="64" viewBox="0 0 64 64" fill="none" xmlns="http://www.w3.org/2000/svg">
<path d="M33.3333 25.3332L26.6667 34.6665H37.3333L30.6667 43.9998M8 38.9332V32.3468C8 29.2836 8 27.7521 8.3948 26.3415C8.74453 25.0921 9.31928 23.917 10.0908 22.8738C10.9618 21.6962 12.1708 20.7559 14.5887 18.8753L21.5221 13.4827C25.2695 10.568 27.1432 9.11062 29.2123 8.55041C31.0379 8.05611 32.9621 8.05611 34.7877 8.55041C36.8568 9.11062 38.7304 10.568 42.4779 13.4827L49.4112 18.8753C51.8293 20.7559 53.0381 21.6962 53.9091 22.8738C54.6808 23.917 55.2555 25.0921 55.6051 26.3415C56 27.7521 56 29.2836 56 32.3468V38.9332C56 44.907 56 47.894 54.8373 50.1758C53.8147 52.1828 52.1829 53.8145 50.176 54.8372C47.8941 55.9998 44.9072 55.9998 38.9333 55.9998H25.0667C19.0928 55.9998 16.1058 55.9998 13.8241 54.8372C11.817 53.8145 10.1853 52.1828 9.16259 50.1758C8 47.894 8 44.907 8 38.9332Z" stroke="#F9CD56" stroke-width="3" stroke-linecap="round" stroke-linejoin="round"/>
</svg>
