<svg width="64" height="64" viewBox="0 0 64 64" fill="none" xmlns="http://www.w3.org/2000/svg">
<g clip-path="url(#clip0_635_247)">
<path d="M48.6489 23.9862H20.4234L15.4521 16.9909C15.2368 16.686 14.9527 16.4371 14.6232 16.2648C14.2937 16.0925 13.9283 16.0017 13.5571 16H3.8484C3.42854 16.0005 3.01653 16.1147 2.65536 16.3306C2.29419 16.5465 1.99712 16.8562 1.79515 17.2274C1.59318 17.5986 1.49373 18.0177 1.50717 18.4409C1.52061 18.8641 1.64645 19.2759 1.87156 19.6333L5.36904 25.1187L0.467891 31.7012C0.207213 32.0517 0.0484714 32.4685 0.00945409 32.9049C-0.0295632 33.3412 0.0526852 33.78 0.246983 34.1718C0.441281 34.5637 0.739952 34.8933 1.10953 35.1237C1.47911 35.354 1.90499 35.476 2.33945 35.476H3.95367L3.93028 61.6407C3.93028 62.2664 4.17675 62.8665 4.61549 63.309C5.05422 63.7514 5.64927 64 6.26973 64H48.6489C49.2706 64.0006 49.8672 63.7526 50.3079 63.3104C50.7486 62.8681 50.9975 62.2677 51 61.6407V26.3455C50.9975 25.7185 50.7486 25.1181 50.3079 24.6759C49.8672 24.2336 49.2706 23.9856 48.6489 23.9862ZM3.8484 18.3593H13.5571L17.5459 23.9862H7.42775L3.8484 18.3593ZM2.33945 33.1167L7.38097 26.3455H37.2908L32.2493 33.1167H2.33945ZM38.4606 61.6407H6.26973L6.29312 35.476H32.2493C32.6125 35.476 32.9707 35.3908 33.2955 35.227C33.6204 35.0632 33.903 34.8253 34.1209 34.5323L38.4606 28.7048V61.6407ZM48.6489 61.6407H40.8V26.3455H48.6605L48.6489 61.6407Z" fill="#F9CD56"/>
<path d="M63.972 15.4429C63.6196 11.502 61.9002 7.80831 59.1116 5.0014C56.3229 2.19449 52.6406 0.451055 48.702 0.0729325C46.2942 -0.15233 43.8662 0.145695 41.5843 0.946581C39.3025 1.74747 37.2208 3.03227 35.482 4.71293L33.562 3.65293C33.4103 3.56853 33.2392 3.52507 33.0657 3.52682C32.8921 3.52857 32.7219 3.57548 32.572 3.66293C32.4232 3.75036 32.2992 3.87431 32.2117 4.02306C32.1242 4.1718 32.0761 4.34041 32.072 4.51293L32.042 6.03293C32.022 6.96293 31.992 7.89293 32.002 8.82293C32.002 9.40293 32.012 9.99293 32.022 10.5829L32.032 11.4629C32.037 11.5295 32.037 11.5964 32.032 11.6629C32.0216 11.9236 32.035 12.1847 32.072 12.4429C32.101 12.5766 32.1568 12.7031 32.2358 12.8148C32.3148 12.9265 32.4156 13.0211 32.532 13.0929C32.648 13.1669 32.7787 13.2151 32.915 13.2341C33.0513 13.253 33.1901 13.2424 33.322 13.2029L41.662 10.8429C41.8337 10.7926 41.9888 10.6972 42.111 10.5665C42.2333 10.4359 42.3183 10.2748 42.3571 10.1002C42.3959 9.92551 42.3871 9.74362 42.3317 9.57349C42.2763 9.40336 42.1762 9.25122 42.042 9.13293L40.602 7.86293C42.7664 6.25544 45.4468 5.5008 48.132 5.74293C50.7615 5.97668 53.2217 7.13996 55.0709 9.024C56.9201 10.908 58.0373 13.3895 58.222 16.0229C58.3471 17.7717 58.0499 19.5249 57.3555 21.1347C56.6611 22.7446 55.5898 24.1638 54.232 25.2729C53.9594 25.4976 53.7342 25.7742 53.5694 26.0866C53.4046 26.3991 53.3035 26.7411 53.272 27.0929C53.2117 27.8334 53.4411 28.5683 53.912 29.1429L54.132 29.3929C54.3918 29.7058 54.7173 29.9576 55.0855 30.1304C55.4536 30.3033 55.8553 30.3929 56.262 30.3929C56.8944 30.3909 57.5063 30.1681 57.992 29.7629C60.0613 28.0282 61.6844 25.8225 62.7249 23.3308C63.7654 20.8391 64.1931 18.1341 63.972 15.4429ZM56.702 28.2329C56.5461 28.3516 56.3499 28.4044 56.1555 28.3801C55.961 28.3558 55.7839 28.2563 55.662 28.1029L55.452 27.8529C55.3847 27.7752 55.334 27.6846 55.3031 27.5865C55.2721 27.4885 55.2615 27.3852 55.272 27.2829C55.2777 27.1923 55.3019 27.1039 55.3432 27.023C55.3845 26.9422 55.4419 26.8707 55.512 26.8129C57.1137 25.5031 58.3769 23.8272 59.1949 21.9266C60.0129 20.0261 60.3618 17.9566 60.212 15.8929C59.9959 12.7823 58.6782 9.85048 56.4954 7.62373C54.3126 5.39698 51.4077 4.02107 48.302 3.74293C47.922 3.71293 47.542 3.70293 47.162 3.70293C43.9115 3.6896 40.7758 4.90389 38.382 7.10293C38.277 7.19693 38.194 7.3128 38.1387 7.44239C38.0834 7.57198 38.0572 7.71212 38.062 7.85293C38.062 7.9935 38.0923 8.1324 38.151 8.26013C38.2097 8.38786 38.2953 8.50139 38.402 8.59293L39.352 9.43293L34.022 10.9329V10.5429C34.012 9.97293 34.002 9.39293 34.002 8.81293C33.992 7.94293 34.012 7.07293 34.042 6.20293L35.172 6.83293C35.3662 6.93988 35.5904 6.97925 35.8095 6.94486C36.0285 6.91047 36.2299 6.80426 36.382 6.64293C37.7715 5.17152 39.447 3.99964 41.3058 3.19925C43.1646 2.39886 45.1674 1.98686 47.1912 1.98854C49.215 1.99022 51.217 2.40554 53.0745 3.20902C54.932 4.01249 56.6056 5.18715 57.9926 6.66087C59.3797 8.13459 60.4508 9.87627 61.1403 11.779C61.8299 13.6817 62.1232 15.7052 62.0023 17.7254C61.8815 19.7456 61.349 21.7197 60.4375 23.5266C59.526 25.3336 58.2548 26.9351 56.702 28.2329Z" fill="#F9CD56"/>
</g>
<defs>
<clipPath id="clip0_635_247">
<rect width="64" height="64" fill="white"/>
</clipPath>
</defs>
</svg>
