<svg width="586" height="586" viewBox="0 0 586 586" fill="none" xmlns="http://www.w3.org/2000/svg">
<path d="M317.45 467.01C275.077 472.965 231.987 463.254 196.264 439.7C160.541 416.145 134.641 380.365 123.422 339.072L292.994 293L317.45 467.01Z" fill="#375152"/>
<path d="M460.115 347.3C449.811 379.013 430.696 407.139 405.003 428.394C379.311 449.649 348.101 463.155 315.019 467.334L292.995 292.999L460.115 347.3Z" fill="#E13946"/>
<path d="M435.582 190.172C451.884 212.571 462.635 238.51 466.956 265.869C471.277 293.227 469.045 321.229 460.442 347.583L293.147 293.476L435.582 190.172Z" fill="#52BABC"/>
<path d="M293.294 117.928C321.061 117.905 348.429 124.438 373.159 136.995C397.889 149.551 419.28 167.774 435.582 190.172L293.147 293.476L293.294 117.928Z" fill="#5CBB3B"/>
<path d="M125.761 347.863C117.203 321.522 115.018 293.525 119.384 266.159C123.751 238.793 134.545 212.836 150.885 190.41C167.225 167.984 188.646 149.726 213.397 137.128C238.149 124.53 265.527 117.951 293.294 117.928L293.147 293.476L125.761 347.863Z" fill="#F3CE6B"/>
</svg>
