<svg width="1028" height="560" viewBox="0 0 1028 560" fill="none" xmlns="http://www.w3.org/2000/svg">
<path d="M63.2299 553V551.466L68.9913 545.159C69.6674 544.42 70.2243 543.778 70.6618 543.233C71.0993 542.682 71.4231 542.165 71.6334 541.682C71.8493 541.193 71.9572 540.682 71.9572 540.148C71.9572 539.534 71.8095 539.003 71.514 538.554C71.2243 538.105 70.8265 537.759 70.3209 537.514C69.8152 537.27 69.247 537.148 68.6163 537.148C67.9459 537.148 67.3606 537.287 66.8606 537.565C66.3663 537.838 65.9828 538.222 65.7101 538.716C65.443 539.21 65.3095 539.79 65.3095 540.455H63.2981C63.2981 539.432 63.5339 538.534 64.0055 537.761C64.4771 536.989 65.1191 536.386 65.9316 535.955C66.7498 535.523 67.6674 535.307 68.6845 535.307C69.7072 535.307 70.6135 535.523 71.4032 535.955C72.193 536.386 72.8123 536.969 73.2612 537.702C73.7101 538.435 73.9345 539.25 73.9345 540.148C73.9345 540.79 73.818 541.418 73.5851 542.031C73.3578 542.639 72.9601 543.318 72.3919 544.068C71.8294 544.812 71.0481 545.722 70.0481 546.795L66.1277 550.989V551.125H74.2413V553H63.2299ZM82.9744 553.239C81.6903 553.239 80.5965 552.889 79.6931 552.19C78.7897 551.486 78.0994 550.466 77.6221 549.131C77.1448 547.79 76.9062 546.17 76.9062 544.273C76.9062 542.386 77.1448 540.776 77.6221 539.44C78.1051 538.099 78.7982 537.077 79.7016 536.372C80.6107 535.662 81.7016 535.307 82.9744 535.307C84.2471 535.307 85.3352 535.662 86.2386 536.372C87.1477 537.077 87.8409 538.099 88.3181 539.44C88.8011 540.776 89.0426 542.386 89.0426 544.273C89.0426 546.17 88.8039 547.79 88.3266 549.131C87.8494 550.466 87.159 551.486 86.2556 552.19C85.3522 552.889 84.2585 553.239 82.9744 553.239ZM82.9744 551.364C84.2471 551.364 85.2357 550.75 85.9403 549.523C86.6448 548.295 86.9971 546.545 86.9971 544.273C86.9971 542.761 86.8352 541.474 86.5113 540.412C86.1931 539.349 85.7329 538.54 85.1306 537.983C84.534 537.426 83.8153 537.148 82.9744 537.148C81.713 537.148 80.7272 537.77 80.017 539.014C79.3068 540.253 78.9516 542.006 78.9516 544.273C78.9516 545.784 79.1107 547.068 79.4289 548.125C79.7471 549.182 80.2045 549.986 80.8011 550.537C81.4034 551.088 82.1278 551.364 82.9744 551.364ZM91.8012 553V551.466L97.5626 545.159C98.2387 544.42 98.7955 543.778 99.233 543.233C99.6705 542.682 99.9944 542.165 100.205 541.682C100.421 541.193 100.528 540.682 100.528 540.148C100.528 539.534 100.381 539.003 100.085 538.554C99.7955 538.105 99.3978 537.759 98.8921 537.514C98.3864 537.27 97.8182 537.148 97.1876 537.148C96.5171 537.148 95.9319 537.287 95.4319 537.565C94.9376 537.838 94.554 538.222 94.2813 538.716C94.0143 539.21 93.8807 539.79 93.8807 540.455H91.8694C91.8694 539.432 92.1052 538.534 92.5768 537.761C93.0484 536.989 93.6904 536.386 94.5029 535.955C95.3211 535.523 96.2387 535.307 97.2557 535.307C98.2785 535.307 99.1847 535.523 99.9745 535.955C100.764 536.386 101.384 536.969 101.832 537.702C102.281 538.435 102.506 539.25 102.506 540.148C102.506 540.79 102.389 541.418 102.156 542.031C101.929 542.639 101.531 543.318 100.963 544.068C100.401 544.812 99.6194 545.722 98.6194 546.795L94.6989 550.989V551.125H102.813V553H91.8012ZM105.852 553V551.466L111.614 545.159C112.29 544.42 112.847 543.778 113.284 543.233C113.722 542.682 114.046 542.165 114.256 541.682C114.472 541.193 114.58 540.682 114.58 540.148C114.58 539.534 114.432 539.003 114.137 538.554C113.847 538.105 113.449 537.759 112.943 537.514C112.438 537.27 111.869 537.148 111.239 537.148C110.568 537.148 109.983 537.287 109.483 537.565C108.989 537.838 108.605 538.222 108.333 538.716C108.066 539.21 107.932 539.79 107.932 540.455H105.921C105.921 539.432 106.156 538.534 106.628 537.761C107.1 536.989 107.742 536.386 108.554 535.955C109.372 535.523 110.29 535.307 111.307 535.307C112.33 535.307 113.236 535.523 114.026 535.955C114.816 536.386 115.435 536.969 115.884 537.702C116.333 538.435 116.557 539.25 116.557 540.148C116.557 540.79 116.441 541.418 116.208 542.031C115.98 542.639 115.583 543.318 115.014 544.068C114.452 544.812 113.671 545.722 112.671 546.795L108.75 550.989V551.125H116.864V553H105.852Z" fill="#777E90"/>
<path d="M274.855 553V551.466L280.616 545.159C281.292 544.42 281.849 543.778 282.287 543.233C282.724 542.682 283.048 542.165 283.258 541.682C283.474 541.193 283.582 540.682 283.582 540.148C283.582 539.534 283.434 539.003 283.139 538.554C282.849 538.105 282.452 537.759 281.946 537.514C281.44 537.27 280.872 537.148 280.241 537.148C279.571 537.148 278.986 537.287 278.486 537.565C277.991 537.838 277.608 538.222 277.335 538.716C277.068 539.21 276.934 539.79 276.934 540.455H274.923C274.923 539.432 275.159 538.534 275.631 537.761C276.102 536.989 276.744 536.386 277.557 535.955C278.375 535.523 279.292 535.307 280.309 535.307C281.332 535.307 282.238 535.523 283.028 535.955C283.818 536.386 284.437 536.969 284.886 537.702C285.335 538.435 285.559 539.25 285.559 540.148C285.559 540.79 285.443 541.418 285.21 542.031C284.983 542.639 284.585 543.318 284.017 544.068C283.454 544.812 282.673 545.722 281.673 546.795L277.753 550.989V551.125H285.866V553H274.855ZM294.599 553.239C293.315 553.239 292.222 552.889 291.318 552.19C290.415 551.486 289.724 550.466 289.247 549.131C288.77 547.79 288.531 546.17 288.531 544.273C288.531 542.386 288.77 540.776 289.247 539.44C289.73 538.099 290.423 537.077 291.327 536.372C292.236 535.662 293.327 535.307 294.599 535.307C295.872 535.307 296.96 535.662 297.864 536.372C298.773 537.077 299.466 538.099 299.943 539.44C300.426 540.776 300.668 542.386 300.668 544.273C300.668 546.17 300.429 547.79 299.952 549.131C299.474 550.466 298.784 551.486 297.881 552.19C296.977 552.889 295.883 553.239 294.599 553.239ZM294.599 551.364C295.872 551.364 296.861 550.75 297.565 549.523C298.27 548.295 298.622 546.545 298.622 544.273C298.622 542.761 298.46 541.474 298.136 540.412C297.818 539.349 297.358 538.54 296.756 537.983C296.159 537.426 295.44 537.148 294.599 537.148C293.338 537.148 292.352 537.77 291.642 539.014C290.932 540.253 290.577 542.006 290.577 544.273C290.577 545.784 290.736 547.068 291.054 548.125C291.372 549.182 291.829 549.986 292.426 550.537C293.028 551.088 293.753 551.364 294.599 551.364ZM303.426 553V551.466L309.188 545.159C309.864 544.42 310.421 543.778 310.858 543.233C311.296 542.682 311.619 542.165 311.83 541.682C312.046 541.193 312.153 540.682 312.153 540.148C312.153 539.534 312.006 539.003 311.71 538.554C311.421 538.105 311.023 537.759 310.517 537.514C310.011 537.27 309.443 537.148 308.813 537.148C308.142 537.148 307.557 537.287 307.057 537.565C306.563 537.838 306.179 538.222 305.906 538.716C305.639 539.21 305.506 539.79 305.506 540.455H303.494C303.494 539.432 303.73 538.534 304.202 537.761C304.673 536.989 305.315 536.386 306.128 535.955C306.946 535.523 307.864 535.307 308.881 535.307C309.903 535.307 310.81 535.523 311.599 535.955C312.389 536.386 313.009 536.969 313.457 537.702C313.906 538.435 314.131 539.25 314.131 540.148C314.131 540.79 314.014 541.418 313.781 542.031C313.554 542.639 313.156 543.318 312.588 544.068C312.026 544.812 311.244 545.722 310.244 546.795L306.324 550.989V551.125H314.438V553H303.426ZM323.375 553.239C322.25 553.239 321.247 553.045 320.367 552.659C319.492 552.273 318.796 551.736 318.279 551.048C317.767 550.355 317.489 549.551 317.443 548.636H319.591C319.637 549.199 319.83 549.685 320.171 550.094C320.512 550.497 320.958 550.81 321.509 551.031C322.06 551.253 322.671 551.364 323.341 551.364C324.091 551.364 324.756 551.233 325.335 550.972C325.915 550.71 326.369 550.347 326.699 549.881C327.029 549.415 327.193 548.875 327.193 548.261C327.193 547.619 327.034 547.054 326.716 546.565C326.398 546.071 325.932 545.685 325.318 545.406C324.705 545.128 323.955 544.989 323.068 544.989H321.671V543.114H323.068C323.762 543.114 324.369 542.989 324.892 542.739C325.421 542.489 325.833 542.136 326.128 541.682C326.429 541.227 326.58 540.693 326.58 540.08C326.58 539.489 326.449 538.974 326.188 538.537C325.926 538.099 325.557 537.759 325.08 537.514C324.608 537.27 324.051 537.148 323.409 537.148C322.807 537.148 322.239 537.259 321.705 537.48C321.176 537.696 320.744 538.011 320.409 538.426C320.074 538.835 319.892 539.33 319.864 539.909H317.818C317.852 538.994 318.128 538.193 318.645 537.506C319.162 536.812 319.838 536.273 320.673 535.886C321.514 535.5 322.438 535.307 323.443 535.307C324.523 535.307 325.449 535.526 326.222 535.963C326.994 536.395 327.588 536.966 328.003 537.676C328.418 538.386 328.625 539.153 328.625 539.977C328.625 540.96 328.367 541.798 327.85 542.491C327.338 543.185 326.642 543.665 325.762 543.932V544.068C326.864 544.25 327.725 544.719 328.344 545.474C328.963 546.224 329.273 547.153 329.273 548.261C329.273 549.21 329.014 550.062 328.497 550.818C327.986 551.568 327.287 552.159 326.401 552.591C325.514 553.023 324.506 553.239 323.375 553.239Z" fill="#777E90"/>
<path d="M486.984 553V551.466L492.745 545.159C493.421 544.42 493.978 543.778 494.416 543.233C494.853 542.682 495.177 542.165 495.387 541.682C495.603 541.193 495.711 540.682 495.711 540.148C495.711 539.534 495.563 539.003 495.268 538.554C494.978 538.105 494.58 537.759 494.075 537.514C493.569 537.27 493.001 537.148 492.37 537.148C491.7 537.148 491.115 537.287 490.615 537.565C490.12 537.838 489.737 538.222 489.464 538.716C489.197 539.21 489.063 539.79 489.063 540.455H487.052C487.052 539.432 487.288 538.534 487.759 537.761C488.231 536.989 488.873 536.386 489.686 535.955C490.504 535.523 491.421 535.307 492.438 535.307C493.461 535.307 494.367 535.523 495.157 535.955C495.947 536.386 496.566 536.969 497.015 537.702C497.464 538.435 497.688 539.25 497.688 540.148C497.688 540.79 497.572 541.418 497.339 542.031C497.112 542.639 496.714 543.318 496.146 544.068C495.583 544.812 494.802 545.722 493.802 546.795L489.882 550.989V551.125H497.995V553H486.984ZM506.728 553.239C505.444 553.239 504.35 552.889 503.447 552.19C502.544 551.486 501.853 550.466 501.376 549.131C500.899 547.79 500.66 546.17 500.66 544.273C500.66 542.386 500.899 540.776 501.376 539.44C501.859 538.099 502.552 537.077 503.456 536.372C504.365 535.662 505.456 535.307 506.728 535.307C508.001 535.307 509.089 535.662 509.992 536.372C510.902 537.077 511.595 538.099 512.072 539.44C512.555 540.776 512.796 542.386 512.796 544.273C512.796 546.17 512.558 547.79 512.081 549.131C511.603 550.466 510.913 551.486 510.01 552.19C509.106 552.889 508.012 553.239 506.728 553.239ZM506.728 551.364C508.001 551.364 508.99 550.75 509.694 549.523C510.399 548.295 510.751 546.545 510.751 544.273C510.751 542.761 510.589 541.474 510.265 540.412C509.947 539.349 509.487 538.54 508.885 537.983C508.288 537.426 507.569 537.148 506.728 537.148C505.467 537.148 504.481 537.77 503.771 539.014C503.061 540.253 502.706 542.006 502.706 544.273C502.706 545.784 502.865 547.068 503.183 548.125C503.501 549.182 503.958 549.986 504.555 550.537C505.157 551.088 505.882 551.364 506.728 551.364ZM515.555 553V551.466L521.316 545.159C521.993 544.42 522.549 543.778 522.987 543.233C523.424 542.682 523.748 542.165 523.959 541.682C524.174 541.193 524.282 540.682 524.282 540.148C524.282 539.534 524.135 539.003 523.839 538.554C523.549 538.105 523.152 537.759 522.646 537.514C522.14 537.27 521.572 537.148 520.941 537.148C520.271 537.148 519.686 537.287 519.186 537.565C518.691 537.838 518.308 538.222 518.035 538.716C517.768 539.21 517.635 539.79 517.635 540.455H515.623C515.623 539.432 515.859 538.534 516.331 537.761C516.802 536.989 517.444 536.386 518.257 535.955C519.075 535.523 519.993 535.307 521.01 535.307C522.032 535.307 522.939 535.523 523.728 535.955C524.518 536.386 525.137 536.969 525.586 537.702C526.035 538.435 526.26 539.25 526.26 540.148C526.26 540.79 526.143 541.418 525.91 542.031C525.683 542.639 525.285 543.318 524.717 544.068C524.155 544.812 523.373 545.722 522.373 546.795L518.453 550.989V551.125H526.566V553H515.555ZM528.822 549.42V547.682L536.493 535.545H537.754V538.239H536.902L531.106 547.409V547.545H541.436V549.42H528.822ZM537.038 553V548.892V548.082V535.545H539.05V553H537.038Z" fill="#777E90"/>
<path d="M699.195 553V551.466L704.956 545.159C705.632 544.42 706.189 543.778 706.627 543.233C707.064 542.682 707.388 542.165 707.598 541.682C707.814 541.193 707.922 540.682 707.922 540.148C707.922 539.534 707.774 539.003 707.479 538.554C707.189 538.105 706.791 537.759 706.286 537.514C705.78 537.27 705.212 537.148 704.581 537.148C703.911 537.148 703.325 537.287 702.825 537.565C702.331 537.838 701.948 538.222 701.675 538.716C701.408 539.21 701.274 539.79 701.274 540.455H699.263C699.263 539.432 699.499 538.534 699.97 537.761C700.442 536.989 701.084 536.386 701.896 535.955C702.715 535.523 703.632 535.307 704.649 535.307C705.672 535.307 706.578 535.523 707.368 535.955C708.158 536.386 708.777 536.969 709.226 537.702C709.675 538.435 709.899 539.25 709.899 540.148C709.899 540.79 709.783 541.418 709.55 542.031C709.323 542.639 708.925 543.318 708.357 544.068C707.794 544.812 707.013 545.722 706.013 546.795L702.093 550.989V551.125H710.206V553H699.195ZM718.939 553.239C717.655 553.239 716.561 552.889 715.658 552.19C714.755 551.486 714.064 550.466 713.587 549.131C713.11 547.79 712.871 546.17 712.871 544.273C712.871 542.386 713.11 540.776 713.587 539.44C714.07 538.099 714.763 537.077 715.666 536.372C716.576 535.662 717.666 535.307 718.939 535.307C720.212 535.307 721.3 535.662 722.203 536.372C723.113 537.077 723.806 538.099 724.283 539.44C724.766 540.776 725.007 542.386 725.007 544.273C725.007 546.17 724.769 547.79 724.291 549.131C723.814 550.466 723.124 551.486 722.22 552.19C721.317 552.889 720.223 553.239 718.939 553.239ZM718.939 551.364C720.212 551.364 721.201 550.75 721.905 549.523C722.61 548.295 722.962 546.545 722.962 544.273C722.962 542.761 722.8 541.474 722.476 540.412C722.158 539.349 721.698 538.54 721.095 537.983C720.499 537.426 719.78 537.148 718.939 537.148C717.678 537.148 716.692 537.77 715.982 539.014C715.272 540.253 714.916 542.006 714.916 544.273C714.916 545.784 715.076 547.068 715.394 548.125C715.712 549.182 716.169 549.986 716.766 550.537C717.368 551.088 718.093 551.364 718.939 551.364ZM727.766 553V551.466L733.527 545.159C734.204 544.42 734.76 543.778 735.198 543.233C735.635 542.682 735.959 542.165 736.169 541.682C736.385 541.193 736.493 540.682 736.493 540.148C736.493 539.534 736.346 539.003 736.05 538.554C735.76 538.105 735.363 537.759 734.857 537.514C734.351 537.27 733.783 537.148 733.152 537.148C732.482 537.148 731.897 537.287 731.397 537.565C730.902 537.838 730.519 538.222 730.246 538.716C729.979 539.21 729.846 539.79 729.846 540.455H727.834C727.834 539.432 728.07 538.534 728.542 537.761C729.013 536.989 729.655 536.386 730.468 535.955C731.286 535.523 732.204 535.307 733.221 535.307C734.243 535.307 735.15 535.523 735.939 535.955C736.729 536.386 737.348 536.969 737.797 537.702C738.246 538.435 738.471 539.25 738.471 540.148C738.471 540.79 738.354 541.418 738.121 542.031C737.894 542.639 737.496 543.318 736.928 544.068C736.365 544.812 735.584 545.722 734.584 546.795L730.664 550.989V551.125H738.777V553H727.766ZM747.272 553.239C746.272 553.239 745.371 553.04 744.57 552.642C743.769 552.244 743.127 551.699 742.644 551.006C742.161 550.312 741.897 549.523 741.851 548.636H743.897C743.976 549.426 744.334 550.08 744.971 550.597C745.613 551.108 746.38 551.364 747.272 551.364C747.988 551.364 748.624 551.196 749.181 550.861C749.743 550.526 750.184 550.065 750.502 549.48C750.826 548.889 750.988 548.222 750.988 547.477C750.988 546.716 750.82 546.037 750.485 545.44C750.155 544.838 749.701 544.364 749.121 544.017C748.542 543.67 747.88 543.494 747.135 543.489C746.601 543.483 746.053 543.565 745.491 543.736C744.928 543.901 744.465 544.114 744.101 544.375L742.124 544.136L743.181 535.545H752.249V537.42H744.954L744.34 542.568H744.442C744.8 542.284 745.249 542.048 745.789 541.861C746.329 541.673 746.891 541.58 747.476 541.58C748.545 541.58 749.496 541.835 750.331 542.347C751.172 542.852 751.831 543.545 752.309 544.426C752.792 545.307 753.033 546.312 753.033 547.443C753.033 548.557 752.783 549.551 752.283 550.426C751.789 551.295 751.107 551.983 750.238 552.489C749.368 552.989 748.38 553.239 747.272 553.239Z" fill="#777E90"/>
<path d="M911.007 553V551.466L916.769 545.159C917.445 544.42 918.002 543.778 918.439 543.233C918.877 542.682 919.2 542.165 919.411 541.682C919.627 541.193 919.735 540.682 919.735 540.148C919.735 539.534 919.587 539.003 919.291 538.554C919.002 538.105 918.604 537.759 918.098 537.514C917.593 537.27 917.024 537.148 916.394 537.148C915.723 537.148 915.138 537.287 914.638 537.565C914.144 537.838 913.76 538.222 913.487 538.716C913.22 539.21 913.087 539.79 913.087 540.455H911.075C911.075 539.432 911.311 538.534 911.783 537.761C912.254 536.989 912.896 536.386 913.709 535.955C914.527 535.523 915.445 535.307 916.462 535.307C917.485 535.307 918.391 535.523 919.181 535.955C919.97 536.386 920.59 536.969 921.039 537.702C921.487 538.435 921.712 539.25 921.712 540.148C921.712 540.79 921.595 541.418 921.362 542.031C921.135 542.639 920.737 543.318 920.169 544.068C919.607 544.812 918.825 545.722 917.825 546.795L913.905 550.989V551.125H922.019V553H911.007ZM930.752 553.239C929.468 553.239 928.374 552.889 927.47 552.19C926.567 551.486 925.877 550.466 925.399 549.131C924.922 547.79 924.684 546.17 924.684 544.273C924.684 542.386 924.922 540.776 925.399 539.44C925.882 538.099 926.576 537.077 927.479 536.372C928.388 535.662 929.479 535.307 930.752 535.307C932.024 535.307 933.113 535.662 934.016 536.372C934.925 537.077 935.618 538.099 936.095 539.44C936.578 540.776 936.82 542.386 936.82 544.273C936.82 546.17 936.581 547.79 936.104 549.131C935.627 550.466 934.936 551.486 934.033 552.19C933.13 552.889 932.036 553.239 930.752 553.239ZM930.752 551.364C932.024 551.364 933.013 550.75 933.718 549.523C934.422 548.295 934.774 546.545 934.774 544.273C934.774 542.761 934.613 541.474 934.289 540.412C933.97 539.349 933.51 538.54 932.908 537.983C932.311 537.426 931.593 537.148 930.752 537.148C929.49 537.148 928.505 537.77 927.794 539.014C927.084 540.253 926.729 542.006 926.729 544.273C926.729 545.784 926.888 547.068 927.206 548.125C927.524 549.182 927.982 549.986 928.578 550.537C929.181 551.088 929.905 551.364 930.752 551.364ZM939.579 553V551.466L945.34 545.159C946.016 544.42 946.573 543.778 947.01 543.233C947.448 542.682 947.772 542.165 947.982 541.682C948.198 541.193 948.306 540.682 948.306 540.148C948.306 539.534 948.158 539.003 947.863 538.554C947.573 538.105 947.175 537.759 946.669 537.514C946.164 537.27 945.596 537.148 944.965 537.148C944.294 537.148 943.709 537.287 943.209 537.565C942.715 537.838 942.331 538.222 942.059 538.716C941.792 539.21 941.658 539.79 941.658 540.455H939.647C939.647 539.432 939.883 538.534 940.354 537.761C940.826 536.989 941.468 536.386 942.28 535.955C943.098 535.523 944.016 535.307 945.033 535.307C946.056 535.307 946.962 535.523 947.752 535.955C948.542 536.386 949.161 536.969 949.61 537.702C950.059 538.435 950.283 539.25 950.283 540.148C950.283 540.79 950.167 541.418 949.934 542.031C949.706 542.639 949.309 543.318 948.74 544.068C948.178 544.812 947.397 545.722 946.397 546.795L942.476 550.989V551.125H950.59V553H939.579ZM959.425 553.239C958.709 553.227 957.993 553.091 957.278 552.83C956.562 552.568 955.908 552.128 955.317 551.509C954.726 550.884 954.252 550.04 953.894 548.977C953.536 547.909 953.357 546.568 953.357 544.955C953.357 543.409 953.502 542.04 953.792 540.847C954.081 539.648 954.502 538.639 955.053 537.821C955.604 536.997 956.269 536.372 957.047 535.946C957.831 535.52 958.715 535.307 959.698 535.307C960.675 535.307 961.545 535.503 962.306 535.895C963.073 536.281 963.698 536.821 964.181 537.514C964.664 538.207 964.976 539.006 965.118 539.909H963.039C962.846 539.125 962.471 538.474 961.914 537.957C961.357 537.44 960.618 537.182 959.698 537.182C958.346 537.182 957.28 537.77 956.502 538.946C955.729 540.122 955.34 541.773 955.334 543.898H955.471C955.789 543.415 956.167 543.003 956.604 542.662C957.047 542.315 957.536 542.048 958.07 541.861C958.604 541.673 959.17 541.58 959.766 541.58C960.766 541.58 961.681 541.83 962.51 542.33C963.34 542.824 964.005 543.509 964.505 544.384C965.005 545.253 965.255 546.25 965.255 547.375C965.255 548.455 965.013 549.443 964.53 550.341C964.047 551.233 963.368 551.943 962.493 552.472C961.624 552.994 960.601 553.25 959.425 553.239ZM959.425 551.364C960.141 551.364 960.783 551.185 961.351 550.827C961.925 550.469 962.377 549.989 962.706 549.386C963.042 548.784 963.209 548.114 963.209 547.375C963.209 546.653 963.047 545.997 962.724 545.406C962.405 544.81 961.965 544.335 961.403 543.983C960.846 543.631 960.209 543.455 959.493 543.455C958.954 543.455 958.451 543.562 957.985 543.778C957.519 543.989 957.11 544.278 956.758 544.648C956.411 545.017 956.138 545.44 955.939 545.918C955.741 546.389 955.641 546.886 955.641 547.409C955.641 548.102 955.803 548.75 956.127 549.352C956.456 549.955 956.905 550.44 957.474 550.81C958.047 551.179 958.698 551.364 959.425 551.364Z" fill="#777E90"/>
<path d="M848 84C848 72.9543 856.954 64 868 64H1008C1019.05 64 1028 72.9543 1028 84V480C1028 488.837 1020.84 496 1012 496H864C855.163 496 848 488.837 848 480V84Z" fill="url(#paint0_radial_635_274)"/>
<path d="M848.5 84C848.5 73.2304 857.23 64.5 868 64.5H1008C1018.77 64.5 1027.5 73.2304 1027.5 84V480C1027.5 488.56 1020.56 495.5 1012 495.5H864C855.44 495.5 848.5 488.56 848.5 480V84Z" stroke="white" stroke-opacity="0.1"/>
<path d="M636 196C636 184.954 644.954 176 656 176H796C807.046 176 816 184.954 816 196V480C816 488.837 808.837 496 800 496H652C643.163 496 636 488.837 636 480V196Z" fill="url(#paint1_radial_635_274)"/>
<path d="M636.5 196C636.5 185.23 645.23 176.5 656 176.5H796C806.77 176.5 815.5 185.23 815.5 196V480C815.5 488.56 808.56 495.5 800 495.5H652C643.44 495.5 636.5 488.56 636.5 480V196Z" stroke="white" stroke-opacity="0.1"/>
<path d="M424 348C424 336.954 432.954 328 444 328H584C595.046 328 604 336.954 604 348V480C604 488.837 596.837 496 588 496H440C431.163 496 424 488.837 424 480V348Z" fill="url(#paint2_radial_635_274)"/>
<path d="M424.5 348C424.5 337.23 433.23 328.5 444 328.5H584C594.77 328.5 603.5 337.23 603.5 348V480C603.5 488.56 596.56 495.5 588 495.5H440C431.44 495.5 424.5 488.56 424.5 480V348Z" stroke="white" stroke-opacity="0.1"/>
<path d="M268.794 359.909V330.818H270.657V359.909H268.794ZM274.169 340.125C274.063 339.133 273.616 338.36 272.828 337.807C272.048 337.254 271.032 336.977 269.782 336.977C268.904 336.977 268.15 337.11 267.521 337.375C266.892 337.64 266.411 338 266.078 338.455C265.745 338.909 265.574 339.428 265.567 340.011C265.567 340.496 265.676 340.917 265.896 341.273C266.123 341.629 266.43 341.932 266.817 342.182C267.203 342.424 267.631 342.629 268.101 342.795C268.57 342.962 269.044 343.102 269.521 343.216L271.703 343.761C272.582 343.966 273.426 344.242 274.237 344.591C275.055 344.939 275.786 345.379 276.43 345.909C277.082 346.439 277.597 347.08 277.976 347.83C278.354 348.58 278.544 349.458 278.544 350.466C278.544 351.83 278.195 353.03 277.498 354.068C276.801 355.098 275.794 355.905 274.476 356.489C273.165 357.064 271.578 357.352 269.714 357.352C267.904 357.352 266.332 357.072 264.998 356.511C263.673 355.951 262.635 355.133 261.885 354.057C261.142 352.981 260.741 351.67 260.68 350.125H264.828C264.889 350.936 265.139 351.61 265.578 352.148C266.017 352.686 266.589 353.087 267.294 353.352C268.006 353.617 268.801 353.75 269.68 353.75C270.597 353.75 271.4 353.614 272.089 353.341C272.786 353.061 273.332 352.674 273.726 352.182C274.12 351.682 274.32 351.098 274.328 350.432C274.32 349.826 274.142 349.326 273.794 348.932C273.445 348.53 272.957 348.197 272.328 347.932C271.707 347.659 270.979 347.417 270.146 347.205L267.498 346.523C265.582 346.03 264.067 345.284 262.953 344.284C261.847 343.277 261.294 341.939 261.294 340.273C261.294 338.902 261.665 337.701 262.407 336.67C263.157 335.64 264.176 334.841 265.464 334.273C266.752 333.697 268.21 333.409 269.839 333.409C271.491 333.409 272.938 333.697 274.18 334.273C275.43 334.841 276.411 335.633 277.123 336.648C277.835 337.655 278.203 338.814 278.226 340.125H274.169ZM290.901 333.727V357H286.685V337.83H286.549L281.106 341.307V337.443L286.89 333.727H290.901ZM295.75 352.682V349.33L305.625 333.727H308.42V338.5H306.716L300.068 349.034V349.216H313.852V352.682H295.75ZM306.852 357V351.659L306.897 350.159V333.727H310.875V357H306.852ZM317.07 333.727H322.229L329.138 350.591H329.411L336.32 333.727H341.479V357H337.433V341.011H337.218L330.786 356.932H327.763L321.331 340.977H321.115V357H317.07V333.727Z" fill="white"/>
<path d="M212 409C212 397.954 220.954 389 232 389H372C383.046 389 392 397.954 392 409V480C392 488.837 384.837 496 376 496H228C219.163 496 212 488.837 212 480V409Z" fill="url(#paint3_radial_635_274)"/>
<path d="M212.5 409C212.5 398.23 221.23 389.5 232 389.5H372C382.77 389.5 391.5 398.23 391.5 409V480C391.5 488.56 384.56 495.5 376 495.5H228C219.44 495.5 212.5 488.56 212.5 480V409Z" stroke="white" stroke-opacity="0.1"/>
<path d="M64.6613 414.909V385.818H66.5249V414.909H64.6613ZM70.0363 395.125C69.9302 394.133 69.4833 393.36 68.6954 392.807C67.9151 392.254 66.8999 391.977 65.6499 391.977C64.7712 391.977 64.0174 392.11 63.3886 392.375C62.7598 392.64 62.2787 393 61.9454 393.455C61.6121 393.909 61.4416 394.428 61.434 395.011C61.434 395.496 61.5439 395.917 61.7636 396.273C61.9909 396.629 62.2977 396.932 62.684 397.182C63.0704 397.424 63.4984 397.629 63.9681 397.795C64.4378 397.962 64.9113 398.102 65.3886 398.216L67.5704 398.761C68.4492 398.966 69.2939 399.242 70.1045 399.591C70.9227 399.939 71.6537 400.379 72.2977 400.909C72.9492 401.439 73.4643 402.08 73.8431 402.83C74.2219 403.58 74.4113 404.458 74.4113 405.466C74.4113 406.83 74.0628 408.03 73.3659 409.068C72.6689 410.098 71.6613 410.905 70.3431 411.489C69.0325 412.064 67.4454 412.352 65.5818 412.352C63.7712 412.352 62.1992 412.072 60.8659 411.511C59.5401 410.951 58.5022 410.133 57.7522 409.057C57.0098 407.981 56.6083 406.67 56.5477 405.125H60.6954C60.756 405.936 61.006 406.61 61.4454 407.148C61.8848 407.686 62.4568 408.087 63.1613 408.352C63.8734 408.617 64.6689 408.75 65.5477 408.75C66.4643 408.75 67.2674 408.614 67.9568 408.341C68.6537 408.061 69.1992 407.674 69.5931 407.182C69.9871 406.682 70.1878 406.098 70.1954 405.432C70.1878 404.826 70.0098 404.326 69.6613 403.932C69.3128 403.53 68.8242 403.197 68.1954 402.932C67.5742 402.659 66.8469 402.417 66.0136 402.205L63.3659 401.523C61.4492 401.03 59.934 400.284 58.8204 399.284C57.7143 398.277 57.1613 396.939 57.1613 395.273C57.1613 393.902 57.5325 392.701 58.2749 391.67C59.0249 390.64 60.0439 389.841 61.3318 389.273C62.6196 388.697 64.078 388.409 65.7068 388.409C67.3583 388.409 68.8052 388.697 70.0477 389.273C71.2977 389.841 72.2787 390.633 72.9909 391.648C73.703 392.655 74.0704 393.814 74.0931 395.125H70.0363ZM76.8821 407.682V404.33L86.7571 388.727H89.5526V393.5H87.848L81.2003 404.034V404.216H94.9844V407.682H76.8821ZM87.9844 412V406.659L88.0298 405.159V388.727H92.0071V412H87.9844ZM98.2023 388.727H103.361L110.271 405.591H110.543L117.452 388.727H122.611V412H118.566V396.011H118.35L111.918 411.932H108.896L102.464 395.977H102.248V412H98.2023V388.727Z" fill="white"/>
<path d="M0 464C0 452.954 8.95431 444 20 444H160C171.046 444 180 452.954 180 464V480C180 488.837 172.837 496 164 496H16C7.16344 496 0 488.837 0 480V464Z" fill="url(#paint4_radial_635_274)"/>
<path d="M0.5 464C0.5 453.23 9.23045 444.5 20 444.5H160C170.77 444.5 179.5 453.23 179.5 464V480C179.5 488.56 172.56 495.5 164 495.5H16C7.43959 495.5 0.5 488.56 0.5 480V464Z" stroke="white" stroke-opacity="0.1"/>
<path d="M895.973 34.9091V5.81818H897.837V34.9091H895.973ZM901.348 15.125C901.242 14.1326 900.795 13.3598 900.007 12.8068C899.227 12.2538 898.212 11.9773 896.962 11.9773C896.083 11.9773 895.329 12.1098 894.7 12.375C894.072 12.6402 893.591 13 893.257 13.4545C892.924 13.9091 892.753 14.428 892.746 15.0114C892.746 15.4962 892.856 15.9167 893.075 16.2727C893.303 16.6288 893.61 16.9318 893.996 17.1818C894.382 17.4242 894.81 17.6288 895.28 17.7955C895.75 17.9621 896.223 18.1023 896.7 18.2159L898.882 18.7614C899.761 18.9659 900.606 19.2424 901.416 19.5909C902.235 19.9394 902.966 20.3788 903.61 20.9091C904.261 21.4394 904.776 22.0795 905.155 22.8295C905.534 23.5795 905.723 24.4583 905.723 25.4659C905.723 26.8295 905.375 28.0303 904.678 29.0682C903.981 30.0985 902.973 30.9053 901.655 31.4886C900.344 32.0644 898.757 32.3523 896.894 32.3523C895.083 32.3523 893.511 32.072 892.178 31.5114C890.852 30.9508 889.814 30.1326 889.064 29.0568C888.322 27.9811 887.92 26.6705 887.86 25.125H892.007C892.068 25.9356 892.318 26.6098 892.757 27.1477C893.197 27.6856 893.769 28.0871 894.473 28.3523C895.185 28.6174 895.981 28.75 896.86 28.75C897.776 28.75 898.579 28.6136 899.269 28.3409C899.966 28.0606 900.511 27.6742 900.905 27.1818C901.299 26.6818 901.5 26.0985 901.507 25.4318C901.5 24.8258 901.322 24.3258 900.973 23.9318C900.625 23.5303 900.136 23.197 899.507 22.9318C898.886 22.6591 898.159 22.4167 897.325 22.2045L894.678 21.5227C892.761 21.0303 891.246 20.2841 890.132 19.2841C889.026 18.2765 888.473 16.9394 888.473 15.2727C888.473 13.9015 888.844 12.7008 889.587 11.6705C890.337 10.6402 891.356 9.84091 892.644 9.27273C893.932 8.69697 895.39 8.40909 897.019 8.40909C898.67 8.40909 900.117 8.69697 901.36 9.27273C902.61 9.84091 903.591 10.6326 904.303 11.6477C905.015 12.6553 905.382 13.8144 905.405 15.125H901.348ZM918.08 8.72727V32H913.864V12.8295H913.728L908.285 16.3068V12.4432L914.069 8.72727H918.08ZM931.44 32.3182C929.925 32.3182 928.569 32.0341 927.372 31.4659C926.175 30.8902 925.224 30.1023 924.52 29.1023C923.823 28.1023 923.452 26.9583 923.406 25.6705H927.497C927.573 26.625 927.986 27.4053 928.736 28.0114C929.486 28.6098 930.387 28.9091 931.44 28.9091C932.266 28.9091 933.001 28.7197 933.645 28.3409C934.289 27.9621 934.796 27.4356 935.168 26.7614C935.539 26.0871 935.721 25.3182 935.713 24.4545C935.721 23.5758 935.535 22.7955 935.156 22.1136C934.777 21.4318 934.259 20.8977 933.599 20.5114C932.94 20.1174 932.183 19.9205 931.327 19.9205C930.63 19.9129 929.944 20.0417 929.27 20.3068C928.596 20.572 928.062 20.9205 927.668 21.3523L923.861 20.7273L925.077 8.72727H938.577V12.25H928.565L927.895 18.4205H928.031C928.463 17.9129 929.073 17.4924 929.861 17.1591C930.649 16.8182 931.512 16.6477 932.452 16.6477C933.861 16.6477 935.118 16.9811 936.224 17.6477C937.33 18.3068 938.202 19.2159 938.838 20.375C939.474 21.5341 939.793 22.8598 939.793 24.3523C939.793 25.8902 939.437 27.2614 938.724 28.4659C938.02 29.6629 937.039 30.6061 935.781 31.2955C934.531 31.9773 933.084 32.3182 931.44 32.3182ZM951.562 32.4432C949.69 32.4432 948.084 31.9697 946.744 31.0227C945.41 30.0682 944.384 28.6932 943.664 26.8977C942.952 25.0947 942.596 22.9242 942.596 20.3864C942.603 17.8485 942.963 15.6894 943.675 13.9091C944.395 12.1212 945.422 10.7576 946.755 9.81818C948.096 8.87879 949.698 8.40909 951.562 8.40909C953.425 8.40909 955.028 8.87879 956.369 9.81818C957.709 10.7576 958.736 12.1212 959.448 13.9091C960.168 15.697 960.528 17.8561 960.528 20.3864C960.528 22.9318 960.168 25.1061 959.448 26.9091C958.736 28.7045 957.709 30.0758 956.369 31.0227C955.035 31.9697 953.433 32.4432 951.562 32.4432ZM951.562 28.8864C953.016 28.8864 954.164 28.1705 955.005 26.7386C955.853 25.2992 956.278 23.1818 956.278 20.3864C956.278 18.5379 956.084 16.9848 955.698 15.7273C955.312 14.4697 954.766 13.5227 954.062 12.8864C953.357 12.2424 952.524 11.9205 951.562 11.9205C950.115 11.9205 948.971 12.6402 948.13 14.0795C947.289 15.5114 946.865 17.6136 946.857 20.3864C946.85 22.2424 947.035 23.803 947.414 25.0682C947.8 26.3333 948.346 27.2879 949.05 27.9318C949.755 28.5682 950.592 28.8864 951.562 28.8864ZM963.89 8.72727H969.05L975.959 25.5909H976.231L983.14 8.72727H988.3V32H984.254V16.0114H984.038L977.606 31.9318H974.584L968.152 15.9773H967.936V32H963.89V8.72727Z" fill="white"/>
<path d="M691.888 146.909V117.818H693.751V146.909H691.888ZM697.263 127.125C697.156 126.133 696.71 125.36 695.922 124.807C695.141 124.254 694.126 123.977 692.876 123.977C691.997 123.977 691.244 124.11 690.615 124.375C689.986 124.64 689.505 125 689.172 125.455C688.838 125.909 688.668 126.428 688.66 127.011C688.66 127.496 688.77 127.917 688.99 128.273C689.217 128.629 689.524 128.932 689.91 129.182C690.297 129.424 690.725 129.629 691.194 129.795C691.664 129.962 692.138 130.102 692.615 130.216L694.797 130.761C695.675 130.966 696.52 131.242 697.331 131.591C698.149 131.939 698.88 132.379 699.524 132.909C700.175 133.439 700.691 134.08 701.069 134.83C701.448 135.58 701.638 136.458 701.638 137.466C701.638 138.83 701.289 140.03 700.592 141.068C699.895 142.098 698.888 142.905 697.569 143.489C696.259 144.064 694.672 144.352 692.808 144.352C690.997 144.352 689.425 144.072 688.092 143.511C686.766 142.951 685.728 142.133 684.978 141.057C684.236 139.981 683.835 138.67 683.774 137.125H687.922C687.982 137.936 688.232 138.61 688.672 139.148C689.111 139.686 689.683 140.087 690.388 140.352C691.1 140.617 691.895 140.75 692.774 140.75C693.691 140.75 694.494 140.614 695.183 140.341C695.88 140.061 696.425 139.674 696.819 139.182C697.213 138.682 697.414 138.098 697.422 137.432C697.414 136.826 697.236 136.326 696.888 135.932C696.539 135.53 696.05 135.197 695.422 134.932C694.8 134.659 694.073 134.417 693.24 134.205L690.592 133.523C688.675 133.03 687.16 132.284 686.047 131.284C684.941 130.277 684.388 128.939 684.388 127.273C684.388 125.902 684.759 124.701 685.501 123.67C686.251 122.64 687.27 121.841 688.558 121.273C689.846 120.697 691.304 120.409 692.933 120.409C694.585 120.409 696.031 120.697 697.274 121.273C698.524 121.841 699.505 122.633 700.217 123.648C700.929 124.655 701.297 125.814 701.319 127.125H697.263ZM712.62 144.318C711.105 144.318 709.749 144.034 708.552 143.466C707.355 142.89 706.404 142.102 705.699 141.102C705.002 140.102 704.631 138.958 704.586 137.67H708.677C708.752 138.625 709.165 139.405 709.915 140.011C710.665 140.61 711.567 140.909 712.62 140.909C713.445 140.909 714.18 140.72 714.824 140.341C715.468 139.962 715.976 139.436 716.347 138.761C716.718 138.087 716.9 137.318 716.892 136.455C716.9 135.576 716.714 134.795 716.336 134.114C715.957 133.432 715.438 132.898 714.779 132.511C714.12 132.117 713.362 131.92 712.506 131.92C711.809 131.913 711.124 132.042 710.449 132.307C709.775 132.572 709.241 132.92 708.847 133.352L705.04 132.727L706.256 120.727H719.756V124.25H709.745L709.074 130.42H709.211C709.642 129.913 710.252 129.492 711.04 129.159C711.828 128.818 712.692 128.648 713.631 128.648C715.04 128.648 716.298 128.981 717.404 129.648C718.51 130.307 719.381 131.216 720.017 132.375C720.654 133.534 720.972 134.86 720.972 136.352C720.972 137.89 720.616 139.261 719.904 140.466C719.199 141.663 718.218 142.606 716.961 143.295C715.711 143.977 714.264 144.318 712.62 144.318ZM732.23 144.318C730.715 144.318 729.359 144.034 728.162 143.466C726.965 142.89 726.014 142.102 725.309 141.102C724.612 140.102 724.241 138.958 724.196 137.67H728.287C728.362 138.625 728.775 139.405 729.525 140.011C730.275 140.61 731.177 140.909 732.23 140.909C733.055 140.909 733.79 140.72 734.434 140.341C735.078 139.962 735.586 139.436 735.957 138.761C736.328 138.087 736.51 137.318 736.502 136.455C736.51 135.576 736.324 134.795 735.946 134.114C735.567 133.432 735.048 132.898 734.389 132.511C733.73 132.117 732.972 131.92 732.116 131.92C731.419 131.913 730.734 132.042 730.059 132.307C729.385 132.572 728.851 132.92 728.457 133.352L724.65 132.727L725.866 120.727H739.366V124.25H729.355L728.684 130.42H728.821C729.252 129.913 729.862 129.492 730.65 129.159C731.438 128.818 732.302 128.648 733.241 128.648C734.65 128.648 735.908 128.981 737.014 129.648C738.12 130.307 738.991 131.216 739.627 132.375C740.264 133.534 740.582 134.86 740.582 136.352C740.582 137.89 740.226 139.261 739.514 140.466C738.809 141.663 737.828 142.606 736.571 143.295C735.321 143.977 733.874 144.318 732.23 144.318ZM743.976 120.727H749.135L756.044 137.591H756.317L763.226 120.727H768.385V144H764.34V128.011H764.124L757.692 143.932H754.669L748.237 127.977H748.022V144H743.976V120.727Z" fill="white"/>
<path d="M479.809 298.909V269.818H481.673V298.909H479.809ZM485.184 279.125C485.078 278.133 484.631 277.36 483.844 276.807C483.063 276.254 482.048 275.977 480.798 275.977C479.919 275.977 479.165 276.11 478.537 276.375C477.908 276.64 477.427 277 477.094 277.455C476.76 277.909 476.59 278.428 476.582 279.011C476.582 279.496 476.692 279.917 476.912 280.273C477.139 280.629 477.446 280.932 477.832 281.182C478.219 281.424 478.647 281.629 479.116 281.795C479.586 281.962 480.059 282.102 480.537 282.216L482.719 282.761C483.597 282.966 484.442 283.242 485.253 283.591C486.071 283.939 486.802 284.379 487.446 284.909C488.097 285.439 488.612 286.08 488.991 286.83C489.37 287.58 489.559 288.458 489.559 289.466C489.559 290.83 489.211 292.03 488.514 293.068C487.817 294.098 486.809 294.905 485.491 295.489C484.181 296.064 482.594 296.352 480.73 296.352C478.919 296.352 477.347 296.072 476.014 295.511C474.688 294.951 473.65 294.133 472.9 293.057C472.158 291.981 471.756 290.67 471.696 289.125H475.844C475.904 289.936 476.154 290.61 476.594 291.148C477.033 291.686 477.605 292.087 478.309 292.352C479.022 292.617 479.817 292.75 480.696 292.75C481.612 292.75 482.415 292.614 483.105 292.341C483.802 292.061 484.347 291.674 484.741 291.182C485.135 290.682 485.336 290.098 485.344 289.432C485.336 288.826 485.158 288.326 484.809 287.932C484.461 287.53 483.972 287.197 483.344 286.932C482.722 286.659 481.995 286.417 481.162 286.205L478.514 285.523C476.597 285.03 475.082 284.284 473.969 283.284C472.862 282.277 472.309 280.939 472.309 279.273C472.309 277.902 472.681 276.701 473.423 275.67C474.173 274.64 475.192 273.841 476.48 273.273C477.768 272.697 479.226 272.409 480.855 272.409C482.506 272.409 483.953 272.697 485.196 273.273C486.446 273.841 487.427 274.633 488.139 275.648C488.851 276.655 489.219 277.814 489.241 279.125H485.184ZM492.451 296V292.955L500.53 285.034C501.303 284.254 501.947 283.561 502.462 282.955C502.977 282.348 503.364 281.761 503.621 281.193C503.879 280.625 504.007 280.019 504.007 279.375C504.007 278.64 503.841 278.011 503.507 277.489C503.174 276.958 502.716 276.549 502.132 276.261C501.549 275.973 500.886 275.83 500.144 275.83C499.379 275.83 498.708 275.989 498.132 276.307C497.557 276.617 497.11 277.061 496.792 277.636C496.481 278.212 496.326 278.898 496.326 279.693H492.314C492.314 278.216 492.651 276.932 493.326 275.841C494 274.75 494.928 273.905 496.11 273.307C497.299 272.708 498.663 272.409 500.201 272.409C501.761 272.409 503.133 272.701 504.314 273.284C505.496 273.867 506.413 274.667 507.064 275.682C507.723 276.697 508.053 277.856 508.053 279.159C508.053 280.03 507.886 280.886 507.553 281.727C507.22 282.568 506.633 283.5 505.792 284.523C504.958 285.545 503.788 286.784 502.28 288.239L498.269 292.318V292.477H508.405V296H492.451ZM512.538 296L522.436 276.409V276.25H510.947V272.727H526.799V276.33L516.913 296H512.538ZM530.054 272.727H535.213L542.122 289.591H542.395L549.304 272.727H554.463V296H550.418V280.011H550.202L543.77 295.932H540.747L534.316 279.977H534.1V296H530.054V272.727Z" fill="white"/>
<defs>
<radialGradient id="paint0_radial_635_274" cx="0" cy="0" r="1" gradientUnits="userSpaceOnUse" gradientTransform="translate(938 64) rotate(90) scale(458 235.493)">
<stop stop-color="#FFCC41"/>
<stop offset="1" stop-color="#F9CD56" stop-opacity="0"/>
</radialGradient>
<radialGradient id="paint1_radial_635_274" cx="0" cy="0" r="1" gradientUnits="userSpaceOnUse" gradientTransform="translate(726 176) rotate(90) scale(339.259 235.493)">
<stop stop-color="#FFCC41"/>
<stop offset="1" stop-color="#F9CD56" stop-opacity="0"/>
</radialGradient>
<radialGradient id="paint2_radial_635_274" cx="0" cy="0" r="1" gradientUnits="userSpaceOnUse" gradientTransform="translate(514 328) rotate(90) scale(171 226.091)">
<stop stop-color="#FFCC41"/>
<stop offset="1" stop-color="#F9CD56" stop-opacity="0"/>
</radialGradient>
<radialGradient id="paint3_radial_635_274" cx="0" cy="0" r="1" gradientUnits="userSpaceOnUse" gradientTransform="translate(302 389) rotate(90) scale(113.44 235.493)">
<stop stop-color="#FFCC41"/>
<stop offset="0.96937" stop-color="#F9CD56" stop-opacity="0"/>
</radialGradient>
<radialGradient id="paint4_radial_635_274" cx="0" cy="0" r="1" gradientUnits="userSpaceOnUse" gradientTransform="translate(90 444) rotate(90) scale(55.1296 235.493)">
<stop stop-color="#FFCC41"/>
<stop offset="0.960744" stop-color="#F9CD56" stop-opacity="0"/>
</radialGradient>
</defs>
</svg>
